<?xml version="1.0" encoding="utf-8"?>
<!-- Generator: Adobe Illustrator 21.1.0, SVG Export Plug-In . SVG Version: 6.00 Build 0)  -->
<svg version="1.1" id="Layer_1" xmlns="http://www.w3.org/2000/svg" xmlns:xlink="http://www.w3.org/1999/xlink" x="0px" y="0px"
	 viewBox="0 0 731 594" style="enable-background:new 0 0 731 594;" xml:space="preserve">
<style type="text/css">
	.st0{fill:#B2B1B1;}
</style>
<g>
	<g>
		<g>
			<path class="st0" d="M155.3,331.1l-9.9-17c-0.7-1.1-2-1.7-3.3-1.5l-4.8-8.2c6.8-4.9,8.9-14.3,4.5-21.7
				c-4.6-7.9-14.7-10.5-22.6-5.9c-7.9,4.6-10.5,14.7-5.9,22.6c4.3,7.4,13.5,10.2,21.1,6.6l4.8,8.2c-0.8,1.1-0.9,2.5-0.3,3.6l9.9,17
				c0.9,1.6,3.1,2,4.8,1C155.6,334.8,156.2,332.7,155.3,331.1z M127.3,304.8c-0.1,0-0.2,0-0.3,0l0,0c-0.5,0-1.1-0.1-1.6-0.2
				c0.5,0.1,1.1,0.2,1.6,0.2c-0.5-0.1-1.1-0.2-1.6-0.3c0,0.1,0,0.1-0.1,0.2c-1.9-0.3-3.8-1.1-5.4-2.2c-1.6-1.1-3-2.6-4.1-4.4
				c-0.1-0.2-0.2-0.4-0.3-0.5c-0.7-1.3-1.1-2.6-1.4-3.9c-0.5-2.5-0.2-5,0.7-7.3c1.1-2.8,3.1-5.3,5.9-7c6.5-3.8,14.9-1.6,18.7,4.9
				c3.8,6.5,1.6,14.9-4.9,18.7C132.2,304.2,129.7,304.8,127.3,304.8z"/>
		</g>
		<g>
			<g>
				<path class="st0" d="M426.5,400.7l35.6-9c-0.1-0.1-0.2-0.2-0.4-0.3l-50.5-23.8c-0.1-0.1-0.3-0.1-0.4-0.1L426.5,400.7z"/>
			</g>
			<g>
				<path class="st0" d="M463,394.8c0.1-0.2,0.1-0.5,0.2-0.7l-25.2,6.4l9.7,26.6c0.1-0.2,0.3-0.3,0.4-0.5L463,394.8z"/>
			</g>
			<g>
				<path class="st0" d="M408.4,368.2c-0.2,0.2-0.3,0.4-0.5,0.6l-15,31.7c-0.1,0.2-0.1,0.4-0.1,0.6l26.7-9.4L408.4,368.2z"/>
			</g>
			<g>
				<path class="st0" d="M435.5,401l-9.3,2.4c-0.3,0.1-0.6,0-0.9-0.1c-0.3-0.1-0.5-0.3-0.6-0.6l-4.1-8.7l-26.9,9.5
					c0.2,0.1,0.3,0.3,0.5,0.4l50.5,23.8c0.2,0.1,0.4,0.1,0.6,0.2L435.5,401z"/>
			</g>
		</g>
		<g>
			<g>
				<g>
					<path class="st0" d="M139.1,153.3l-0.1-2.2l5.8-0.3l0.1,2.2L139.1,153.3z"/>
				</g>
				<g>
					<path class="st0" d="M126.6,149.4l0.9-2l5.3,2.4l-0.9,2L126.6,149.4z"/>
				</g>
				<g>
					<path class="st0" d="M116.8,141.4l1.5-1.6l4.2,4l-1.5,1.6L116.8,141.4z"/>
				</g>
				<g>
					<path class="st0" d="M109.3,131.7l1.8-1.3l3.3,4.7l-1.8,1.3L109.3,131.7z"/>
				</g>
				<g>
					<path class="st0" d="M103.4,121.3l2-1l2.7,5.1l-2,1L103.4,121.3z"/>
				</g>
				<g>
					<path class="st0" d="M98.7,110.4l2.1-0.8l2.2,5.4l-2.1,0.8L98.7,110.4z"/>
				</g>
				<g>
					<path class="st0" d="M95,99.1l2.1-0.6l1.7,5.5l-2.1,0.6L95,99.1z"/>
				</g>
				<g>
					<path class="st0" d="M92.6,87.4l2.2-0.4l0.9,5.7l-2.2,0.4L92.6,87.4z"/>
				</g>
				<g>
					<path class="st0" d="M93.8,74.8l2.2,0.4l-1.1,5.7l-2.2-0.4L93.8,74.8z"/>
				</g>
				<g>
					<path class="st0" d="M98.9,63.3l1.9,1.1l-2.8,5l-1.9-1.1L98.9,63.3z"/>
				</g>
				<g>
					<path class="st0" d="M107.8,54.2l1.4,1.7l-4.4,3.7l-1.4-1.7L107.8,54.2z"/>
				</g>
				<g>
					<path class="st0" d="M119.8,49.4l0.6,2.2l-5.6,1.5l-0.6-2.2L119.8,49.4z"/>
				</g>
				<g>
					<path class="st0" d="M132.7,50.3l-0.4,2.2l-5.7-1.1l0.4-2.2L132.7,50.3z"/>
				</g>
				<g>
					<path class="st0" d="M144.1,55.9l-1.2,1.9l-4.9-3l1.2-1.9L144.1,55.9z"/>
				</g>
				<g>
					<path class="st0" d="M152.6,65.8l-1.9,1.2l-3-4.9l1.9-1.2L152.6,65.8z"/>
				</g>
				<g>
					<path class="st0" d="M152.5,79.7l-2.2-0.5l1.4-5.6l2.2,0.5L152.5,79.7z"/>
				</g>
				<g>
					<path class="st0" d="M144.7,90.3l-1.6-1.5l3.9-4.2l1.6,1.5L144.7,90.3z"/>
				</g>
				<g>
					<path class="st0" d="M134.7,97.6l-1.2-1.9l4.8-3.2l1.2,1.9L134.7,97.6z"/>
				</g>
				<g>
					<path class="st0" d="M123.8,102.9l-0.9-2.1l5.3-2.3l0.9,2.1L123.8,102.9z"/>
				</g>
				<g>
					<path class="st0" d="M112.1,106.1l-0.5-2.2l5.6-1.3l0.5,2.2L112.1,106.1z"/>
				</g>
				<g>
					<path class="st0" d="M100.5,108.1l-0.3-2.2l5.7-0.9l0.3,2.2L100.5,108.1z"/>
				</g>
				<g>
					<path class="st0" d="M88.9,109.7l-0.3-2.2l5.7-0.8l0.3,2.2L88.9,109.7z"/>
				</g>
				<g>
					<path class="st0" d="M77.5,111.5l-0.4-2.2l5.7-1l0.4,2.2L77.5,111.5z"/>
				</g>
			</g>
			<g>
				<g>
					<path class="st0" d="M97.1,250.8l-2.9,0.5l-1.2-7.6l2.9-0.5L97.1,250.8z"/>
				</g>
				<g>
					<path class="st0" d="M99.5,265.8l-2.9,0.5l-1.2-7.6l2.9-0.5L99.5,265.8z"/>
				</g>
				<g>
					<path class="st0" d="M101.7,281.1l-2.9,0.4l-1-7.6l2.9-0.4L101.7,281.1z"/>
				</g>
				<g>
					<path class="st0" d="M103.2,296.5l-2.9,0.3l-0.7-7.6l2.9-0.3L103.2,296.5z"/>
				</g>
				<g>
					<path class="st0" d="M104,312l-2.9,0.1l-0.2-7.6l2.9-0.1L104,312z"/>
				</g>
				<g>
					<path class="st0" d="M103.5,327.7l-2.9-0.2l0.4-7.6l2.9,0.2L103.5,327.7z"/>
				</g>
				<g>
					<path class="st0" d="M101.2,343.3l-2.9-0.5l1.4-7.5l2.9,0.5L101.2,343.3z"/>
				</g>
				<g>
					<path class="st0" d="M98.5,352.9l-2.8-0.9l2.3-7.3l2.8,0.9L98.5,352.9z"/>
				</g>
				<g>
					<path class="st0" d="M90.4,367.3l-2.4-1.7l4.4-6.3l2.4,1.7L90.4,367.3z"/>
				</g>
				<g>
					<path class="st0" d="M76.7,377.6l-1.4-2.6l6.7-3.7l1.4,2.6L76.7,377.6z"/>
				</g>
				<g>
					<path class="st0" d="M60.2,380.8l-0.3-2.9l7.6-0.8l0.3,2.9L60.2,380.8z"/>
				</g>
				<g>
					<path class="st0" d="M43.3,377.3l0.9-2.8l7.3,2.4l-0.9,2.8L43.3,377.3z"/>
				</g>
				<g>
					<path class="st0" d="M29.5,367.1l2-2.2l5.6,5.2l-2,2.2L29.5,367.1z"/>
				</g>
				<g>
					<path class="st0" d="M20.8,352.8l2.7-1.3l3.4,6.9l-2.7,1.3L20.8,352.8z"/>
				</g>
				<g>
					<path class="st0" d="M17.9,343l2.8-0.8l2,7.4l-2.8,0.8L17.9,343z"/>
				</g>
				<g>
					<path class="st0" d="M17.3,326.3l2.9,0.2l-0.4,7.6l-2.9-0.2L17.3,326.3z"/>
				</g>
				<g>
					<path class="st0" d="M23.6,310.3l2.5,1.5l-3.8,6.6l-2.5-1.5L23.6,310.3z"/>
				</g>
				<g>
					<path class="st0" d="M39.8,301.5l0.7,2.9l-7.4,1.9l-0.7-2.9L39.8,301.5z"/>
				</g>
				<g>
					<path class="st0" d="M57.2,305.8l-1.1,2.7l-7.1-3l1.1-2.7L57.2,305.8z"/>
				</g>
				<g>
					<path class="st0" d="M70.5,315.3l-1.8,2.3l-6-4.7l1.8-2.3L70.5,315.3z"/>
				</g>
				<g>
					<path class="st0" d="M81.4,327.7l-2.3,1.8l-4.6-6.1l2.3-1.8L81.4,327.7z"/>
				</g>
				<g>
					<path class="st0" d="M86.1,336.8l-2.7,1.3l-3.3-6.9l2.7-1.3L86.1,336.8z"/>
				</g>
				<g>
					<path class="st0" d="M89.3,353.3l-2.9,0.3l-0.7-7.6l2.9-0.3L89.3,353.3z"/>
				</g>
				<g>
					<path class="st0" d="M87.3,369.7l-2.9-0.5l1.4-7.5l2.9,0.5L87.3,369.7z"/>
				</g>
				<g>
					<path class="st0" d="M82.7,384.9l-2.8-0.9l2.4-7.3l2.8,0.9L82.7,384.9z"/>
				</g>
				<g>
					<path class="st0" d="M77.5,399.3l-2.8-1l2.6-7.2l2.8,1L77.5,399.3z"/>
				</g>
				<g>
					<path class="st0" d="M73,414.2l-2.9-0.8l2-7.4l2.9,0.8L73,414.2z"/>
				</g>
				<g>
					<path class="st0" d="M73,430.9l-2.9,0.5l-1.2-7.6l2.9-0.5L73,430.9z"/>
				</g>
				<g>
					<path class="st0" d="M77.7,440.3l-2.6,1.3l-3.4-6.8l2.6-1.3L77.7,440.3z"/>
				</g>
				<g>
					<path class="st0" d="M84.5,454.5l-2.7,1.1l-2.9-7.1l2.7-1.1L84.5,454.5z"/>
				</g>
			</g>
			<g>
				<g>
					<path class="st0" d="M484,81.7l-0.9,2.5l-6.5-2.2l0.9-2.5L484,81.7z"/>
				</g>
				<g>
					<path class="st0" d="M496.9,86.1l-0.8,2.5l-6.5-2.2l0.8-2.5L496.9,86.1z"/>
				</g>
				<g>
					<path class="st0" d="M510.3,90l-0.7,2.6l-6.6-1.8l0.7-2.6L510.3,90z"/>
				</g>
				<g>
					<path class="st0" d="M524.1,92.6l-0.4,2.6l-6.8-1l0.4-2.6L524.1,92.6z"/>
				</g>
				<g>
					<path class="st0" d="M538.4,92.7l0.1,2.6l-6.9,0.4l-0.1-2.6L538.4,92.7z"/>
				</g>
				<g>
					<path class="st0" d="M552.6,88.9l0.9,2.5l-6.5,2.4l-0.9-2.5L552.6,88.9z"/>
				</g>
				<g>
					<path class="st0" d="M564.8,80.7l1.6,2.1l-5.4,4.2l-1.6-2.1L564.8,80.7z"/>
				</g>
				<g>
					<path class="st0" d="M570.7,73.5l2.1,1.6l-4.1,5.5l-2.1-1.6L570.7,73.5z"/>
				</g>
				<g>
					<path class="st0" d="M573.6,58l2.6-0.1l0.2,6.9l-2.6,0.1L573.6,58z"/>
				</g>
				<g>
					<path class="st0" d="M560.3,70l-2.3-1.3l3.4-5.9l2.3,1.3L560.3,70z"/>
				</g>
				<g>
					<path class="st0" d="M559,85.9l-2.5,0.7l-1.9-6.6l2.5-0.7L559,85.9z"/>
				</g>
				<g>
					<path class="st0" d="M572.6,95.2l-1.2,2.3l-6.1-3.2l1.2-2.3L572.6,95.2z"/>
				</g>
				<g>
					<path class="st0" d="M585.9,100.2l-0.9,2.5l-6.5-2.3l0.9-2.5L585.9,100.2z"/>
				</g>
				<g>
					<path class="st0" d="M599,105.3l-1.1,2.4l-6.3-2.8l1.1-2.4L599,105.3z"/>
				</g>
				<g>
					<path class="st0" d="M606.7,109.9l-1.4,2.3l-5.9-3.6l1.4-2.3L606.7,109.9z"/>
				</g>
				<g>
					<path class="st0" d="M617.9,119l-1.8,2l-5.1-4.6l1.8-2L617.9,119z"/>
				</g>
				<g>
					<path class="st0" d="M627.3,129.8l-2.1,1.7l-4.3-5.4l2.1-1.7L627.3,129.8z"/>
				</g>
				<g>
					<path class="st0" d="M634.9,142l-2.3,1.3l-3.4-6l2.3-1.3L634.9,142z"/>
				</g>
				<g>
					<path class="st0" d="M640.4,155.3l-2.5,0.9l-2.3-6.5l2.5-0.9L640.4,155.3z"/>
				</g>
				<g>
					<path class="st0" d="M643.3,169.5l-2.6,0.4l-1-6.8l2.6-0.4L643.3,169.5z"/>
				</g>
				<g>
					<path class="st0" d="M643.1,184l-2.6-0.2l0.5-6.8l2.6,0.2L643.1,184z"/>
				</g>
				<g>
					<path class="st0" d="M641.1,192.9l-2.6-0.6l1.7-6.7l2.6,0.6L641.1,192.9z"/>
				</g>
				<g>
					<path class="st0" d="M633.9,206.1l-2.2-1.5l3.8-5.7l2.2,1.5L633.9,206.1z"/>
				</g>
				<g>
					<path class="st0" d="M624.3,216.8l-1.9-1.8l4.7-5l1.9,1.8L624.3,216.8z"/>
				</g>
				<g>
					<path class="st0" d="M614.6,226.8l-1.9-1.8l4.6-5.1l1.9,1.8L614.6,226.8z"/>
				</g>
				<g>
					<path class="st0" d="M608.2,240.7l-2.6-0.5l1.4-6.7l2.6,0.5L608.2,240.7z"/>
				</g>
				<g>
					<path class="st0" d="M614.3,255.6l-2.3,1.3l-3.3-6l2.3-1.3L614.3,255.6z"/>
				</g>
				<g>
					<path class="st0" d="M623,266.9l-2,1.7l-4.4-5.3l2-1.7L623,266.9z"/>
				</g>
				<g>
					<path class="st0" d="M629.4,273l-1.8,1.9l-5-4.7l1.8-1.9L629.4,273z"/>
				</g>
				<g>
					<path class="st0" d="M644.1,278.6l0,2.6l-6.9-0.1l0-2.6L644.1,278.6z"/>
				</g>
				<g>
					<path class="st0" d="M649.6,260.2l2.6,0.3l-0.8,6.8l-2.6-0.3L649.6,260.2z"/>
				</g>
				<g>
					<path class="st0" d="M635.9,260.7l-1.7-2l5.2-4.5l1.7,2L635.9,260.7z"/>
				</g>
				<g>
					<path class="st0" d="M626.3,271.1l-2-1.8l4.6-5.1l2,1.8L626.3,271.1z"/>
				</g>
				<g>
					<path class="st0" d="M617.5,281.8l-2.1-1.7l4.3-5.3l2.1,1.7L617.5,281.8z"/>
				</g>
				<g>
					<path class="st0" d="M609.7,293.8l-2.4-1.2l3.1-6.1l2.4,1.2L609.7,293.8z"/>
				</g>
				<g>
					<path class="st0" d="M608,303.2l-2.6-0.3l0.8-6.8l2.6,0.3L608,303.2z"/>
				</g>
				<g>
					<path class="st0" d="M612.3,318l-2.4,1l-2.7-6.3l2.4-1L612.3,318z"/>
				</g>
				<g>
					<path class="st0" d="M620.1,330.1l-2.2,1.5l-3.9-5.6l2.2-1.5L620.1,330.1z"/>
				</g>
				<g>
					<path class="st0" d="M628.8,341l-2,1.7l-4.4-5.3l2-1.7L628.8,341z"/>
				</g>
				<g>
					<path class="st0" d="M637.7,351.4l-2,1.7l-4.4-5.2l2-1.7L637.7,351.4z"/>
				</g>
				<g>
					<path class="st0" d="M646.3,362.4l-2.1,1.6l-4.1-5.5l2.1-1.6L646.3,362.4z"/>
				</g>
				<g>
					<path class="st0" d="M653.2,375.1l-2.4,1.2l-3-6.2l2.4-1.2L653.2,375.1z"/>
				</g>
				<g>
					<path class="st0" d="M656.4,383.3l-2.5,0.9l-2.4-6.4l2.5-0.9L656.4,383.3z"/>
				</g>
				<g>
					<path class="st0" d="M660.1,397l-2.6,0.6l-1.6-6.7l2.6-0.6L660.1,397z"/>
				</g>
				<g>
					<path class="st0" d="M662.3,411l-2.6,0.3l-0.9-6.8l2.6-0.3L662.3,411z"/>
				</g>
				<g>
					<path class="st0" d="M663.1,425l-2.6,0.1l-0.3-6.9l2.6-0.1L663.1,425z"/>
				</g>
				<g>
					<path class="st0" d="M662.8,439.1l-2.6-0.1l0.3-6.9l2.6,0.1L662.8,439.1z"/>
				</g>
				<g>
					<path class="st0" d="M661.4,453l-2.6-0.3l0.8-6.8l2.6,0.3L661.4,453z"/>
				</g>
				<g>
					<path class="st0" d="M658.4,467l-2.6-0.7l1.8-6.6l2.6,0.7L658.4,467z"/>
				</g>
				<g>
					<path class="st0" d="M655.1,475.3l-2.4-1l2.6-6.3l2.4,1L655.1,475.3z"/>
				</g>
				<g>
					<path class="st0" d="M648.3,487.8l-2.3-1.3l3.5-5.9l2.3,1.3L648.3,487.8z"/>
				</g>
				<g>
					<path class="st0" d="M640.8,499.5l-2.2-1.4l3.7-5.8l2.2,1.4L640.8,499.5z"/>
				</g>
				<g>
					<path class="st0" d="M633.8,511.4l-2.3-1.3l3.3-6l2.3,1.3L633.8,511.4z"/>
				</g>
				<g>
					<path class="st0" d="M628.6,524.8l-2.5-0.8l2-6.6l2.5,0.8L628.6,524.8z"/>
				</g>
			</g>
			<g>
				<g>
					<path class="st0" d="M463.8,448.5l-2.6-0.1l0.2-6.9l2.6,0.1L463.8,448.5z"/>
				</g>
				<g>
					<path class="st0" d="M465.1,462.7l-2.6,0.4l-1-6.8l2.6-0.4L465.1,462.7z"/>
				</g>
				<g>
					<path class="st0" d="M468.8,476.4l-2.5,0.8l-2.1-6.5l2.5-0.8L468.8,476.4z"/>
				</g>
				<g>
					<path class="st0" d="M474.9,489.4l-2.3,1.2l-3.2-6.1l2.3-1.2L474.9,489.4z"/>
				</g>
				<g>
					<path class="st0" d="M483.6,500.9l-2,1.7l-4.5-5.2l2-1.7L483.6,500.9z"/>
				</g>
				<g>
					<path class="st0" d="M495.2,509.7l-1.4,2.2l-5.8-3.6l1.4-2.2L495.2,509.7z"/>
				</g>
				<g>
					<path class="st0" d="M509.1,514.4l-0.7,2.6l-6.7-1.7l0.7-2.6L509.1,514.4z"/>
				</g>
				<g>
					<path class="st0" d="M518.1,515.4l-0.2,2.6l-6.8-0.6l0.2-2.6L518.1,515.4z"/>
				</g>
				<g>
					<path class="st0" d="M532.8,512.7l0.8,2.5l-6.5,2.1l-0.8-2.5L532.8,512.7z"/>
				</g>
				<g>
					<path class="st0" d="M540.6,497.9l2.6,0.3l-0.7,6.8l-2.6-0.3L540.6,497.9z"/>
				</g>
				<g>
					<path class="st0" d="M533.1,483.2l1.5-2.2l5.7,3.8l-1.5,2.2L533.1,483.2z"/>
				</g>
				<g>
					<path class="st0" d="M518.9,496.5l-2.1-1.6l4.1-5.5l2.1,1.6L518.9,496.5z"/>
				</g>
				<g>
					<path class="st0" d="M513.6,510.4l-2.5-0.7l1.9-6.6l2.5,0.7L513.6,510.4z"/>
				</g>
				<g>
					<path class="st0" d="M512.6,524.9l-2.6,0l0-6.9l2.6,0L512.6,524.9z"/>
				</g>
				<g>
					<path class="st0" d="M513.7,533.8l-2.6,0.4l-1-6.8l2.6-0.4L513.7,533.8z"/>
				</g>
				<g>
					<path class="st0" d="M518.6,547.5l-2.4,1.1l-2.8-6.3l2.4-1.1L518.6,547.5z"/>
				</g>
				<g>
					<path class="st0" d="M527.7,559.1l-1.9,1.8l-4.8-4.9l1.9-1.8L527.7,559.1z"/>
				</g>
				<g>
					<path class="st0" d="M540.5,566.8l-1.1,2.4l-6.2-2.9l1.1-2.4L540.5,566.8z"/>
				</g>
				<g>
					<path class="st0" d="M555.7,568l0.2,2.6L549,571l-0.2-2.6L555.7,568z"/>
				</g>
				<g>
					<path class="st0" d="M569.7,563.8l0.9,2.5l-6.5,2.3l-0.9-2.5L569.7,563.8z"/>
				</g>
				<g>
					<path class="st0" d="M582.5,558.2l1.1,2.4l-6.3,2.8l-1.1-2.4L582.5,558.2z"/>
				</g>
				<g>
					<path class="st0" d="M590.2,554.8l1.1,2.4L585,560l-1.1-2.4L590.2,554.8z"/>
				</g>
				<g>
					<path class="st0" d="M603.3,549.8l0.9,2.5l-6.5,2.2l-0.9-2.5L603.3,549.8z"/>
				</g>
			</g>
			<g>
				<g>
					<path class="st0" d="M139.9,439.9l-1.8-1.3l3.3-4.8l1.8,1.3L139.9,439.9z"/>
				</g>
				<g>
					<path class="st0" d="M138.6,453.1l-2.2,0.1l-0.1-5.8l2.2-0.1L138.6,453.1z"/>
				</g>
				<g>
					<path class="st0" d="M141.9,465.1l-2.1,0.8l-2.1-5.4l2.1-0.8L141.9,465.1z"/>
				</g>
				<g>
					<path class="st0" d="M150.6,474.7l-1.4,1.7l-4.5-3.7l1.4-1.7L150.6,474.7z"/>
				</g>
				<g>
					<path class="st0" d="M161.8,480l-0.8,2.1l-5.4-2.1l0.8-2.1L161.8,480z"/>
				</g>
				<g>
					<path class="st0" d="M173.5,482.8L173,485l-5.7-1.1l0.4-2.2L173.5,482.8z"/>
				</g>
				<g>
					<path class="st0" d="M185.2,484.2l-0.2,2.2l-5.8-0.6l0.2-2.2L185.2,484.2z"/>
				</g>
				<g>
					<path class="st0" d="M196.8,484.9l-0.1,2.2l-5.8-0.3l0.1-2.2L196.8,484.9z"/>
				</g>
				<g>
					<path class="st0" d="M208.3,485.4l-0.1,2.2l-5.8-0.2l0.1-2.2L208.3,485.4z"/>
				</g>
				<g>
					<path class="st0" d="M219.9,486.1l-0.2,2.2l-5.8-0.4l0.2-2.2L219.9,486.1z"/>
				</g>
				<g>
					<path class="st0" d="M231.9,488.5l-0.6,2.1l-5.6-1.6l0.6-2.1L231.9,488.5z"/>
				</g>
				<g>
					<path class="st0" d="M242.5,496.2l-1.6,1.6l-4.1-4.1l1.6-1.6L242.5,496.2z"/>
				</g>
				<g>
					<path class="st0" d="M247.3,508.6l-2.2,0.5l-1.3-5.6l2.2-0.5L247.3,508.6z"/>
				</g>
				<g>
					<path class="st0" d="M247.3,521.1l-2.2-0.1l0.4-5.8l2.2,0.1L247.3,521.1z"/>
				</g>
				<g>
					<path class="st0" d="M245.5,532.9l-2.2-0.4l1-5.7l2.2,0.4L245.5,532.9z"/>
				</g>
				<g>
					<path class="st0" d="M243.5,544.3l-2.2-0.4l1-5.7l2.2,0.4L243.5,544.3z"/>
				</g>
				<g>
					<path class="st0" d="M242,555.9l-2.2-0.2l0.5-5.8l2.2,0.2L242,555.9z"/>
				</g>
			</g>
			<g>
				<g>
					<path class="st0" d="M430.1,158l-1.8,1.3l-3.4-4.6l1.8-1.3L430.1,158z"/>
				</g>
				<g>
					<path class="st0" d="M436.2,168.3l-1.9,1.1l-2.8-5.1l1.9-1.1L436.2,168.3z"/>
				</g>
				<g>
					<path class="st0" d="M441.4,178.9l-2,0.9l-2.5-5.2l2-0.9L441.4,178.9z"/>
				</g>
				<g>
					<path class="st0" d="M446,189.6l-2.1,0.9l-2.3-5.3l2.1-0.9L446,189.6z"/>
				</g>
				<g>
					<path class="st0" d="M450.4,200.3l-2.1,0.8l-2.2-5.4l2.1-0.8L450.4,200.3z"/>
				</g>
				<g>
					<path class="st0" d="M454.9,210.9l-2,0.9l-2.3-5.3l2-0.9L454.9,210.9z"/>
				</g>
				<g>
					<path class="st0" d="M459.1,221.9l-2.1,0.8l-2-5.4l2.1-0.8L459.1,221.9z"/>
				</g>
				<g>
					<path class="st0" d="M463,232.7l-2.1,0.8l-2-5.4l2.1-0.8L463,232.7z"/>
				</g>
				<g>
					<path class="st0" d="M467.8,243.5l-2,1l-2.5-5.2l2-1L467.8,243.5z"/>
				</g>
				<g>
					<path class="st0" d="M475.2,253.4l-1.6,1.5l-4-4.2l1.6-1.5L475.2,253.4z"/>
				</g>
				<g>
					<path class="st0" d="M488.5,256.7l0.1,2.2l-5.8,0.3l-0.1-2.2L488.5,256.7z"/>
				</g>
				<g>
					<path class="st0" d="M498.4,246.7l1.9,1.2l-3.2,4.8l-1.9-1.2L498.4,246.7z"/>
				</g>
				<g>
					<path class="st0" d="M501.6,234.4l2.2,0.3l-0.8,5.7l-2.2-0.3L501.6,234.4z"/>
				</g>
				<g>
					<path class="st0" d="M498,221.7l2-1.1l2.7,5.1l-2,1.1L498,221.7z"/>
				</g>
				<g>
					<path class="st0" d="M485.4,216l0.5-2.2l5.6,1.3l-0.5,2.2L485.4,216z"/>
				</g>
				<g>
					<path class="st0" d="M472.7,217.5l-0.5-2.2l5.6-1.4l0.5,2.2L472.7,217.5z"/>
				</g>
				<g>
					<path class="st0" d="M461.8,223.7l-1.3-1.8l4.7-3.4l1.3,1.8L461.8,223.7z"/>
				</g>
				<g>
					<path class="st0" d="M453.8,233.3l-1.8-1.3l3.3-4.8l1.8,1.3L453.8,233.3z"/>
				</g>
				<g>
					<path class="st0" d="M449.9,245.2l-2.2-0.5l1.4-5.6l2.2,0.5L449.9,245.2z"/>
				</g>
				<g>
					<path class="st0" d="M448.1,257l-2.2-0.3l0.7-5.7l2.2,0.3L448.1,257z"/>
				</g>
				<g>
					<path class="st0" d="M447.9,268.9l-2.2,0l-0.1-5.8l2.2,0L447.9,268.9z"/>
				</g>
				<g>
					<path class="st0" d="M449.4,280.7l-2.2,0.4l-0.9-5.7l2.2-0.4L449.4,280.7z"/>
				</g>
				<g>
					<path class="st0" d="M452.6,292.2l-2.1,0.7l-1.8-5.5l2.1-0.7L452.6,292.2z"/>
				</g>
				<g>
					<path class="st0" d="M457.9,303l-1.9,1.1l-2.8-5.1l1.9-1.1L457.9,303z"/>
				</g>
				<g>
					<path class="st0" d="M464.6,312.7l-1.8,1.3l-3.3-4.7l1.8-1.3L464.6,312.7z"/>
				</g>
				<g>
					<path class="st0" d="M471.1,322.5l-1.9,1.2l-3.1-4.9l1.9-1.2L471.1,322.5z"/>
				</g>
				<g>
					<path class="st0" d="M476.5,333.3l-2,0.9l-2.3-5.3l2-0.9L476.5,333.3z"/>
				</g>
				<g>
					<path class="st0" d="M479.3,345.4l-2.2,0.3l-0.9-5.7l2.2-0.3L479.3,345.4z"/>
				</g>
				<g>
					<path class="st0" d="M478.1,357.9l-2.2-0.4l1.1-5.7l2.2,0.4L478.1,357.9z"/>
				</g>
				<g>
					<path class="st0" d="M472.9,369.3l-2-1.1l2.8-5.1l2,1.1L472.9,369.3z"/>
				</g>
				<g>
					<path class="st0" d="M466.2,379.2l-1.8-1.3l3.3-4.8l1.8,1.3L466.2,379.2z"/>
				</g>
			</g>
			<g>
				<g>
					<path class="st0" d="M387,131l-0.1-2.2l5.8-0.3l0.1,2.2L387,131z"/>
				</g>
				<g>
					<path class="st0" d="M374.5,127.1l0.9-2l5.3,2.4l-0.9,2L374.5,127.1z"/>
				</g>
				<g>
					<path class="st0" d="M364.7,119.1l1.5-1.6l4.2,4l-1.5,1.6L364.7,119.1z"/>
				</g>
				<g>
					<path class="st0" d="M357.2,109.4l1.8-1.3l3.3,4.7l-1.8,1.3L357.2,109.4z"/>
				</g>
				<g>
					<path class="st0" d="M351.3,99l2-1l2.7,5.1l-2,1L351.3,99z"/>
				</g>
				<g>
					<path class="st0" d="M346.6,88.1l2.1-0.8l2.2,5.4l-2.1,0.8L346.6,88.1z"/>
				</g>
				<g>
					<path class="st0" d="M342.9,76.8l2.1-0.6l1.7,5.5l-2.1,0.6L342.9,76.8z"/>
				</g>
				<g>
					<path class="st0" d="M340.5,65.1l2.2-0.4l0.9,5.7l-2.2,0.4L340.5,65.1z"/>
				</g>
				<g>
					<path class="st0" d="M341.6,52.5l2.2,0.4l-1.1,5.7l-2.2-0.4L341.6,52.5z"/>
				</g>
				<g>
					<path class="st0" d="M346.8,41l1.9,1.1l-2.8,5L344,46L346.8,41z"/>
				</g>
				<g>
					<path class="st0" d="M355.7,31.9l1.4,1.7l-4.4,3.7l-1.4-1.7L355.7,31.9z"/>
				</g>
				<g>
					<path class="st0" d="M367.7,27.1l0.6,2.2l-5.6,1.5l-0.6-2.2L367.7,27.1z"/>
				</g>
				<g>
					<path class="st0" d="M380.6,28l-0.4,2.2l-5.7-1.1l0.4-2.2L380.6,28z"/>
				</g>
				<g>
					<path class="st0" d="M392,33.6l-1.2,1.9l-4.9-3l1.2-1.9L392,33.6z"/>
				</g>
				<g>
					<path class="st0" d="M400.5,43.5l-1.9,1.2l-3-4.9l1.9-1.2L400.5,43.5z"/>
				</g>
				<g>
					<path class="st0" d="M400.4,57.4l-2.2-0.5l1.4-5.6l2.2,0.5L400.4,57.4z"/>
				</g>
				<g>
					<path class="st0" d="M392.6,68l-1.6-1.5l3.9-4.2l1.6,1.5L392.6,68z"/>
				</g>
				<g>
					<path class="st0" d="M382.6,75.3l-1.2-1.9l4.8-3.2l1.2,1.9L382.6,75.3z"/>
				</g>
				<g>
					<path class="st0" d="M371.7,80.6l-0.9-2.1l5.3-2.3l0.9,2.1L371.7,80.6z"/>
				</g>
				<g>
					<path class="st0" d="M360,83.8l-0.5-2.2l5.6-1.3l0.5,2.2L360,83.8z"/>
				</g>
				<g>
					<path class="st0" d="M348.4,85.8l-0.3-2.2l5.7-0.9l0.3,2.2L348.4,85.8z"/>
				</g>
				<g>
					<path class="st0" d="M336.8,87.4l-0.3-2.2l5.7-0.8l0.3,2.2L336.8,87.4z"/>
				</g>
				<g>
					<path class="st0" d="M325.4,89.2L325,87l5.7-1l0.4,2.2L325.4,89.2z"/>
				</g>
			</g>
			<g>
				<g>
					<path class="st0" d="M344.5,245.4l1.2-1.9l4.9,3l-1.2,1.9L344.5,245.4z"/>
				</g>
				<g>
					<path class="st0" d="M334.6,239.1l1.2-1.8l4.8,3.2l-1.2,1.8L334.6,239.1z"/>
				</g>
				<g>
					<path class="st0" d="M325.4,231.3l1.5-1.6l4.2,4l-1.5,1.6L325.4,231.3z"/>
				</g>
				<g>
					<path class="st0" d="M317.9,221.8l1.8-1.4l3.5,4.6l-1.8,1.4L317.9,221.8z"/>
				</g>
				<g>
					<path class="st0" d="M310.7,212.6l1.7-1.4l3.7,4.5l-1.7,1.4L310.7,212.6z"/>
				</g>
				<g>
					<path class="st0" d="M301.7,204.5l1.4-1.8l4.5,3.6l-1.4,1.8L301.7,204.5z"/>
				</g>
				<g>
					<path class="st0" d="M291.2,198.6l1-2l5.1,2.7l-1,2L291.2,198.6z"/>
				</g>
				<g>
					<path class="st0" d="M280.2,194.1l0.8-2.1l5.4,2l-0.8,2.1L280.2,194.1z"/>
				</g>
				<g>
					<path class="st0" d="M268.7,191.2l0.5-2.2l5.6,1.3l-0.5,2.2L268.7,191.2z"/>
				</g>
				<g>
					<path class="st0" d="M256.9,189.6l0.2-2.2l5.8,0.6l-0.2,2.2L256.9,189.6z"/>
				</g>
				<g>
					<path class="st0" d="M245,189.7l-0.1-2.2l5.8-0.2l0.1,2.2L245,189.7z"/>
				</g>
				<g>
					<path class="st0" d="M233.2,191.5l-0.4-2.2l5.7-1.1l0.4,2.2L233.2,191.5z"/>
				</g>
				<g>
					<path class="st0" d="M221.8,195.3l-0.8-2.1l5.4-2.1l0.8,2.1L221.8,195.3z"/>
				</g>
				<g>
					<path class="st0" d="M211.2,201.1l-1.2-1.9l4.9-3.1l1.2,1.9L211.2,201.1z"/>
				</g>
				<g>
					<path class="st0" d="M202,209l-1.5-1.6l4.2-4l1.5,1.6L202,209z"/>
				</g>
				<g>
					<path class="st0" d="M194.9,218.8l-1.9-1.2l3.1-4.9l1.9,1.2L194.9,218.8z"/>
				</g>
				<g>
					<path class="st0" d="M190.3,230.2l-2.1-0.7l1.8-5.5l2.1,0.7L190.3,230.2z"/>
				</g>
				<g>
					<path class="st0" d="M188.4,242.1l-2.2-0.2l0.6-5.8l2.2,0.2L188.4,242.1z"/>
				</g>
				<g>
					<path class="st0" d="M189.1,254.3l-2.2,0.3l-0.8-5.7l2.2-0.3L189.1,254.3z"/>
				</g>
				<g>
					<path class="st0" d="M192.3,265.8l-2.1,0.7l-1.7-5.5l2.1-0.7L192.3,265.8z"/>
				</g>
				<g>
					<path class="st0" d="M197.1,276.8l-2,1l-2.5-5.2l2-1L197.1,276.8z"/>
				</g>
				<g>
					<path class="st0" d="M204,286.8l-1.7,1.4l-3.6-4.5l1.7-1.4L204,286.8z"/>
				</g>
				<g>
					<path class="st0" d="M216.7,291.5l0,2.2l-5.8,0.1l0-2.2L216.7,291.5z"/>
				</g>
				<g>
					<path class="st0" d="M224,285.6l1.6,1.6l-4.1,4.1l-1.6-1.6L224,285.6z"/>
				</g>
				<g>
					<path class="st0" d="M225,271.5l2.1-0.8l2,5.4l-2.1,0.8L225,271.5z"/>
				</g>
				<g>
					<path class="st0" d="M210.4,268.4l-0.3-2.2l5.7-0.7l0.3,2.2L210.4,268.4z"/>
				</g>
				<g>
					<path class="st0" d="M198.9,273.5l-1-2l5.1-2.7l1,2L198.9,273.5z"/>
				</g>
				<g>
					<path class="st0" d="M189.1,280.6l-1.4-1.7l4.5-3.7l1.4,1.7L189.1,280.6z"/>
				</g>
				<g>
					<path class="st0" d="M184,292.8l-2.2-0.4l0.9-5.7l2.2,0.4L184,292.8z"/>
				</g>
				<g>
					<path class="st0" d="M187.5,305.6l-1.9,1.1l-2.9-5l1.9-1.1L187.5,305.6z"/>
				</g>
				<g>
					<path class="st0" d="M195.5,314.8l-1.7,1.4l-3.6-4.5l1.7-1.4L195.5,314.8z"/>
				</g>
				<g>
					<path class="st0" d="M202.2,324.6l-1.9,1.2l-3.2-4.8l1.9-1.2L202.2,324.6z"/>
				</g>
				<g>
					<path class="st0" d="M208.8,334.2l-1.8,1.3l-3.4-4.7l1.8-1.3L208.8,334.2z"/>
				</g>
				<g>
					<path class="st0" d="M216.9,343l-1.6,1.6l-4.1-4.1l1.6-1.6L216.9,343z"/>
				</g>
				<g>
					<path class="st0" d="M225.3,350.9l-1.5,1.6l-4.2-3.9l1.5-1.6L225.3,350.9z"/>
				</g>
				<g>
					<path class="st0" d="M233.8,359l-1.6,1.6l-4.1-4.1l1.6-1.6L233.8,359z"/>
				</g>
				<g>
					<path class="st0" d="M241.8,367.8l-1.6,1.5l-3.9-4.2l1.6-1.5L241.8,367.8z"/>
				</g>
				<g>
					<path class="st0" d="M250.1,376l-1.6,1.6l-4.1-4l1.6-1.6L250.1,376z"/>
				</g>
				<g>
					<path class="st0" d="M258.3,383.7l-1.5,1.6l-4.3-3.9l1.5-1.6L258.3,383.7z"/>
				</g>
				<g>
					<path class="st0" d="M266.8,391.1l-1.5,1.7l-4.4-3.8l1.5-1.7L266.8,391.1z"/>
				</g>
				<g>
					<path class="st0" d="M275.8,398.5l-1.4,1.7l-4.5-3.6l1.4-1.7L275.8,398.5z"/>
				</g>
				<g>
					<path class="st0" d="M285.1,405.5l-1.3,1.8l-4.7-3.4l1.3-1.8L285.1,405.5z"/>
				</g>
				<g>
					<path class="st0" d="M295,411.9l-1.2,1.9l-4.9-3l1.2-1.9L295,411.9z"/>
				</g>
				<g>
					<path class="st0" d="M305.9,417l-0.8,2.1l-5.4-2.2l0.8-2.1L305.9,417z"/>
				</g>
				<g>
					<path class="st0" d="M314.6,408.1l2.2,0.1l-0.3,5.8l-2.2-0.1L314.6,408.1z"/>
				</g>
				<g>
					<path class="st0" d="M301.3,402.5l-0.6-2.1l5.6-1.6l0.6,2.1L301.3,402.5z"/>
				</g>
				<g>
					<path class="st0" d="M299.2,413l-2.2-0.2l0.6-5.8l2.2,0.2L299.2,413z"/>
				</g>
				<g>
					<path class="st0" d="M300.3,425.2l-2.2,0.3l-0.8-5.7l2.2-0.3L300.3,425.2z"/>
				</g>
				<g>
					<path class="st0" d="M304,436.8l-2.1,0.8l-2.1-5.4l2.1-0.8L304,436.8z"/>
				</g>
				<g>
					<path class="st0" d="M310.8,447.1l-1.8,1.4l-3.6-4.6l1.8-1.4L310.8,447.1z"/>
				</g>
				<g>
					<path class="st0" d="M320.3,454.9l-1.3,1.8l-4.7-3.3l1.3-1.8L320.3,454.9z"/>
				</g>
				<g>
					<path class="st0" d="M331.4,460l-0.8,2.1l-5.4-2.1l0.8-2.1L331.4,460z"/>
				</g>
				<g>
					<path class="st0" d="M343.1,462.7l-0.4,2.2l-5.7-1l0.4-2.2L343.1,462.7z"/>
				</g>
				<g>
					<path class="st0" d="M354.7,464.2l-0.3,2.2l-5.7-0.7l0.3-2.2L354.7,464.2z"/>
				</g>
				<g>
					<path class="st0" d="M366.4,465.1l-0.1,2.2l-5.8-0.4l0.1-2.2L366.4,465.1z"/>
				</g>
				<g>
					<path class="st0" d="M378.1,465.3l0,2.2l-5.8,0l0-2.2L378.1,465.3z"/>
				</g>
				<g>
					<path class="st0" d="M389.9,464.4l0.2,2.2l-5.8,0.6l-0.2-2.2L389.9,464.4z"/>
				</g>
				<g>
					<path class="st0" d="M401.5,459.8l1.1,2l-5.1,2.7l-1.1-2L401.5,459.8z"/>
				</g>
				<g>
					<path class="st0" d="M413.1,455.3l0.5,2.2l-5.6,1.3l-0.5-2.2L413.1,455.3z"/>
				</g>
				<g>
					<path class="st0" d="M426.1,457.3l-0.6,2.1l-5.5-1.7l0.6-2.1L426.1,457.3z"/>
				</g>
				<g>
					<path class="st0" d="M436.9,464l-1.3,1.8l-4.7-3.4l1.3-1.8L436.9,464z"/>
				</g>
				<g>
					<path class="st0" d="M445.4,472.8l-1.7,1.5l-3.8-4.3l1.7-1.5L445.4,472.8z"/>
				</g>
				<g>
					<path class="st0" d="M452.2,482.8l-1.9,1.2l-3-4.9l1.9-1.2L452.2,482.8z"/>
				</g>
				<g>
					<path class="st0" d="M456.8,494.3l-2.1,0.7l-1.7-5.5l2.1-0.7L456.8,494.3z"/>
				</g>
				<g>
					<path class="st0" d="M456.7,507.2l-2.2-0.3l0.9-5.7l2.2,0.3L456.7,507.2z"/>
				</g>
				<g>
					<path class="st0" d="M450.3,518.7l-1.8-1.3l3.5-4.6l1.8,1.3L450.3,518.7z"/>
				</g>
				<g>
					<path class="st0" d="M440.3,526.4l-1.2-1.9l4.8-3.2l1.2,1.9L440.3,526.4z"/>
				</g>
				<g>
					<path class="st0" d="M429.1,531.5l-0.8-2.1l5.4-2.1l0.8,2.1L429.1,531.5z"/>
				</g>
				<g>
					<path class="st0" d="M417.4,534.5l-0.5-2.2l5.7-1.2l0.5,2.2L417.4,534.5z"/>
				</g>
				<g>
					<path class="st0" d="M410,535.4l-0.2-2.2l5.8-0.6l0.2,2.2L410,535.4z"/>
				</g>
				<g>
					<path class="st0" d="M398.2,535.7l0-2.2l5.8-0.1l0,2.2L398.2,535.7z"/>
				</g>
				<g>
					<path class="st0" d="M386.5,535.6l0-2.2l5.8,0.1l0,2.2L386.5,535.6z"/>
				</g>
				<g>
					<path class="st0" d="M374.8,535.1l0.2-2.2l5.8,0.5l-0.2,2.2L374.8,535.1z"/>
				</g>
				<g>
					<path class="st0" d="M363,532.5l0.5-2.2l5.6,1.4l-0.5,2.2L363,532.5z"/>
				</g>
				<g>
					<path class="st0" d="M351.8,529.4l0.6-2.1l5.6,1.6l-0.6,2.1L351.8,529.4z"/>
				</g>
				<g>
					<path class="st0" d="M340.3,526.8l0.4-2.2l5.7,1.1l-0.4,2.2L340.3,526.8z"/>
				</g>
				<g>
					<path class="st0" d="M328.6,525.4l0.2-2.2l5.8,0.5l-0.2,2.2L328.6,525.4z"/>
				</g>
				<g>
					<path class="st0" d="M316.5,526.1l-0.3-2.2l5.7-0.7l0.3,2.2L316.5,526.1z"/>
				</g>
				<g>
					<path class="st0" d="M304.9,530.8l-1-2l5.1-2.7l1.1,2L304.9,530.8z"/>
				</g>
				<g>
					<path class="st0" d="M295.8,539.4l-1.7-1.5l3.8-4.4l1.7,1.5L295.8,539.4z"/>
				</g>
				<g>
					<path class="st0" d="M289.3,549.5l-1.9-1.2l3-4.9l1.9,1.2L289.3,549.5z"/>
				</g>
				<g>
					<path class="st0" d="M284.5,560.6l-2.1-0.7l1.9-5.5l2.1,0.7L284.5,560.6z"/>
				</g>
				<g>
					<path class="st0" d="M282.6,572.7l-2.2-0.2l0.5-5.8l2.2,0.2L282.6,572.7z"/>
				</g>
				<g>
					<path class="st0" d="M285.3,585l-2.1,0.7l-1.9-5.5l2.1-0.7L285.3,585z"/>
				</g>
			</g>
		</g>
		<g>
			<g>
				<g>
					<polygon class="st0" points="277.6,438.8 273.4,438.8 273.5,450.8 269.2,447.8 266.7,451.2 277.8,459.2 					"/>
				</g>
				<g>
					<path class="st0" d="M275.6,430.4v4.3c11.1,0,20.1,9,20.1,20.1c0,11.1-9,20.1-20.1,20.1c-11.1,0-20.1-9-20.1-20.1
						c0-4.2,1.3-8.2,3.7-11.6l1.3,1.6l3.2-8.5l-9,1.2l1.8,2.2c-3.4,4.3-5.2,9.6-5.2,15.1c0,13.4,10.9,24.4,24.4,24.4
						c13.4,0,24.4-10.9,24.4-24.4C300,441.3,289,430.4,275.6,430.4z"/>
				</g>
			</g>
		</g>
		<g>
			<g>
				<g>
					<path class="st0" d="M447.2,160.1c-0.4,0-0.8-0.1-1.1-0.3c-2.2-1.5-4.5-3.1-6.7-4.7c-0.1,0-0.2,0-0.3,0c-0.2,0-0.4,0-0.6,0
						c-3.3,0-6.6-1.9-8.3-4.8c-1.1-1.7-1.6-3.8-1.5-5.9c-0.1-2.3,0.7-4.7,2.1-6.6c1.8-2.4,4.7-3.8,7.7-3.9c2,0,4,0,6,0
						c1.3,0,2.6,0,4,0c1.5,0,3,0.3,4.4,1c2.9,1.4,5.1,4.4,5.6,7.5c0.1,0.6,0.1,0.9,0.1,1.4c0.1,2.5-0.2,4.5-1.2,6.2
						c-1.4,2.5-3.8,4.3-6.6,4.9c-0.9,0.2-1.8,0.3-2.7,0.2c0.1,0.3,0.2,0.5,0.3,0.8c0.2,0.6,0.5,1.2,0.7,1.9c0.2,0.8-0.1,1.5-0.8,2
						C447.9,160,447.5,160.1,447.2,160.1z M439.3,153.6c0.3,0,0.7,0,1,0.3c2.2,1.6,4.4,3.1,6.7,4.7c0.1,0.1,0.3,0.1,0.4,0
						c0.1,0,0.2-0.2,0.2-0.3c-0.2-0.5-0.4-1.1-0.6-1.7c-0.2-0.6-0.5-1.3-0.7-1.9l-0.3-0.9l1,0c0.3,0,0.7,0,1,0c0.9,0,1.7,0,2.4-0.2
						c2.4-0.5,4.5-2.1,5.6-4.2c0.8-1.4,1.1-3.2,1-5.4l0,0c0-0.4,0-0.7-0.1-1.2c-0.4-2.6-2.3-5.2-4.8-6.3c-1.2-0.5-2.5-0.8-3.8-0.8
						c-1.3,0-2.6,0-4,0c-2,0-4,0-6,0c-2.5,0.1-5,1.3-6.5,3.3c-1.2,1.6-1.9,3.6-1.8,5.7c-0.1,1.9,0.4,3.7,1.3,5.1
						c1.5,2.5,4.2,4,7.1,4.1l0.1,0c0.1,0,0.2,0,0.3,0C439.1,153.6,439.2,153.6,439.3,153.6z"/>
					<path class="st0" d="M447.2,160.7c-0.5,0-1-0.2-1.4-0.5c-2.2-1.5-4.4-3-6.5-4.6c0,0-0.1,0-0.1,0c-0.2,0-0.4,0-0.7,0
						c-3.5,0-6.9-2-8.7-5.1c-1.1-1.8-1.7-4-1.6-6.3c-0.1-2.4,0.7-5,2.2-6.9c1.9-2.5,5-4.1,8.1-4.1c2,0,3.9,0,5.9,0h0.2
						c1.3,0,2.6,0,3.9,0c0,0,0,0,0.1,0c1.6,0,3.2,0.4,4.6,1c3,1.4,5.4,4.6,6,8c0.1,0.7,0.1,1,0.1,1.5c0.1,2.6-0.3,4.7-1.3,6.5
						c-1.4,2.6-4,4.6-7,5.2c-0.7,0.2-1.3,0.2-2,0.3c0.3,0.7,0.5,1.3,0.7,2c0.2,1-0.2,2.1-1.1,2.6
						C448.2,160.6,447.7,160.7,447.2,160.7z M439.3,154.5c0.2,0,0.3,0,0.4,0.1c2.3,1.6,4.6,3.2,6.8,4.7c0.4,0.3,1,0.3,1.5,0
						c0.5-0.3,0.7-0.8,0.6-1.3c-0.2-0.6-0.4-1.2-0.6-1.8c-0.1-0.3-0.2-0.6-0.3-0.8l-0.3-0.8l0.9,0c0.8,0,1.7,0,2.5-0.2
						c2.6-0.6,4.9-2.3,6.2-4.6c0.9-1.6,1.3-3.5,1.1-5.9c0-0.4,0-0.8-0.1-1.3c-0.5-2.9-2.6-5.8-5.3-7c-1.3-0.6-2.7-0.9-4.1-0.9
						c0,0,0,0-0.1,0c-1.3,0-2.6,0-4,0h-0.2c-1.9,0-3.9,0-5.8,0c-2.8,0.1-5.5,1.4-7.2,3.7c-1.4,1.8-2.1,4-2,6.2
						c-0.1,2.1,0.4,4,1.4,5.6c1.6,2.7,4.7,4.5,7.8,4.5c0.2,0,0.4,0,0.5,0C439.1,154.5,439.2,154.5,439.3,154.5z M447.2,159.2
						c-0.2,0-0.4-0.1-0.5-0.2c-2.2-1.5-4.5-3.1-6.7-4.7c-0.2-0.1-0.4-0.2-0.7-0.2l-0.2,0c-0.2,0-0.3,0-0.5,0l-0.1,0
						c-3,0-6-1.7-7.5-4.4c-1-1.5-1.4-3.5-1.3-5.5c-0.1-2.1,0.6-4.3,1.9-6c1.6-2.2,4.3-3.5,7-3.5c2,0,3.9,0,5.8,0l0.5,0
						c1.2,0,2.4,0,3.7,0c1.4,0,2.8,0.3,4,0.9c2.6,1.2,4.6,4,5.1,6.8c0.1,0.6,0.1,0.9,0.1,1.3c0.1,2.4-0.2,4.2-1.1,5.7
						c-1.2,2.3-3.5,3.9-6,4.5c-0.8,0.2-1.7,0.2-2.6,0.2l-0.1-0.6l0,0.6c-0.3,0-0.6,0-0.8,0l-0.2,0l0.1,0.2c0.2,0.6,0.4,1.2,0.6,1.8
						c0.2,0.6,0.5,1.2,0.6,1.8c0.1,0.4-0.1,0.8-0.4,1C447.6,159.2,447.4,159.2,447.2,159.2z M447.3,158
						C447.3,158.1,447.3,158.1,447.3,158C447.3,158.1,447.3,158.1,447.3,158z M439.3,153c0.4,0,0.9,0,1.4,0.4c2,1.4,4.1,2.9,6.2,4.3
						c-0.1-0.3-0.3-0.7-0.4-1c-0.3-0.6-0.5-1.3-0.7-2l-0.5-1.7l1.7-0.1c0.3,0,0.6,0,0.9,0h0.1c0.8,0,1.6,0,2.3-0.2
						c2.2-0.5,4.2-2,5.3-3.9c0.8-1.3,1.1-3,0.9-5.1c0-0.4,0-0.7-0.1-1.2c-0.4-2.4-2.2-4.8-4.4-5.9c-1.1-0.5-2.3-0.8-3.5-0.8
						c-1.2,0-2.4,0-3.7,0l-0.5,0c-1.9,0-3.9,0-5.8,0c-2.3,0.1-4.6,1.2-6,3.1c-1.1,1.5-1.8,3.4-1.7,5.3c-0.1,1.8,0.3,3.5,1.2,4.8
						c1.4,2.3,3.9,3.8,6.6,3.8l0.2,0c0.1,0,0.2,0,0.2,0C439.1,153,439.2,153,439.3,153z"/>
				</g>
			</g>
			<g>
				<g>
					<path class="st0" d="M410.4,159.4l0.8-2.3c0.3-0.9,0.6-1.7,1-2.5c0.6-1.5,1.1-3.1,1.7-4.6c-0.6,0-1.3,0-1.9,0
						c-0.6,0-1.2,0-1.8,0c-2.5,0-4.8-0.5-6.8-1.5c-4.4-2.2-7.4-6.7-7.7-11.6c0-0.8-0.1-1.8,0-2.8c0-1.8,0.3-3.3,0.7-4.6
						c0.4-1.1,1-2.3,1.8-3.5h-0.3l1.2-1.3l1.3-2v0.7c1.4-1.2,2.8-2.1,4.3-2.6c1.2-0.5,2.6-0.8,4.4-0.9c5.5,0,10.9,0,16.3,0
						c0,0,0.1,0,0.1,0c3.5,0,6.9,1.3,9.4,3.5c0,0,0.1,0.1,0.2,0.1c0.1,0.1,0.2,0.2,0.3,0.2l0.2,0.1l0.7,0.2l-0.2,0.3
						c2,2.2,3.3,4.8,3.5,7.5l0.1,0.8l-0.8,0c-0.4,0-0.8,0-1.2,0c-0.6,0-1.2,0-1.8,0.1c-1.6,0.2-3.2,0.8-4.6,1.8
						c-2.2,1.6-3.7,4-4.2,6.6c0,0.2-0.1,0.4-0.1,0.5c0,0.1-0.1,0.2-0.1,0.2l0,0.1l0,0.1c-0.1,1.6-0.1,3.4,0.5,5
						c0.1,0.3,0.1,0.4,0.2,0.6c0.1,0.3,0.2,0.6,0.3,0.9l0.2,0.7l-0.7,0.2c-0.8,0.2-1.6,0.2-2.4,0.2c-0.4,0-0.7,0-1.1,0
						c0,0-0.1,0-0.1,0c-3.8,2.7-7.6,5.3-11.4,8L410.4,159.4z M413,148.5c0.6,0,1.3,0,1.9,0l1,0l-0.3,1c-0.7,1.9-1.4,3.8-2.1,5.6
						c0,0.1-0.1,0.2-0.1,0.3c3.2-2.2,6.3-4.4,9.5-6.6l0.1-0.1c0.2-0.1,0.4-0.2,0.7-0.2c0.4,0,0.8,0,1.2,0c0.4,0,0.8,0,1.2,0
						c-0.1-0.2-0.2-0.4-0.2-0.6c-0.6-1.8-0.6-3.7-0.5-5.4c-0.1-0.4,0-0.7,0.1-0.9c0-0.1,0.1-0.2,0.1-0.2l0-0.1
						c0.5-3,2.2-5.7,4.8-7.6c1.6-1.2,3.4-1.9,5.3-2.1c0.7-0.1,1.3-0.1,2-0.1c0.1,0,0.2,0,0.3,0c-0.4-2.1-1.6-4.3-3.3-6.1l0,0
						c0,0,0,0-0.1-0.1l-0.1-0.1c-0.1-0.1-0.3-0.2-0.4-0.3l-0.1-0.1c-2.2-2-5.3-3.1-8.5-3.1c-5.4,0-10.8,0-16.2,0
						c-1.6,0.1-2.9,0.4-3.9,0.8c-1.8,0.6-3.5,1.8-5.1,3.5c-1.1,1.4-2,2.9-2.4,4.2c-0.4,1.2-0.6,2.5-0.7,4.1c0,0.9,0,1.8,0,2.6
						c0.2,4.2,3,8.4,6.9,10.3c1.8,0.9,3.9,1.4,6.1,1.3c0.6,0,1.2,0,1.8,0C412.3,148.5,412.6,148.5,413,148.5z"/>
					<path class="st0" d="M409.1,161l1.5-4.1c0.3-0.9,0.6-1.7,1-2.6l0.1-0.3c0.4-1.1,0.9-2.3,1.3-3.5c-0.3,0-0.6,0-1,0
						c-0.7,0-1.3,0-1.9,0c-2.5,0-5-0.5-7-1.6c-4.6-2.3-7.8-7-8-12.1c0-0.9-0.1-1.9,0-2.8c0-1.9,0.3-3.4,0.8-4.8
						c0.3-0.9,0.7-1.8,1.2-2.7h-0.7l2.3-2.3l2.4-3.6v1.5c1.1-0.8,2.3-1.5,3.5-1.9c1.2-0.5,2.7-0.8,4.6-0.9c3,0,5.9,0,8.8,0
						c2.5,0,5,0,7.5,0c0,0,0,0,0,0c3.7,0,7.3,1.3,9.9,3.6c0,0,0.1,0.1,0.2,0.2c0.1,0.1,0.1,0.1,0.2,0.1l0.2,0.1l1.2,0.5l-0.3,0.5
						c1.9,2.2,3.1,4.9,3.4,7.5l0.2,1.4l-1.4,0.1c-0.4,0-0.8,0-1.2,0c-0.6,0-1.1,0-1.7,0.1c-1.5,0.2-3,0.8-4.3,1.7
						c-2.1,1.5-3.5,3.8-3.9,6.2c0,0.2-0.1,0.5-0.1,0.6l0,0l0,0.1l0,0.1c-0.1,1.6-0.1,3.4,0.4,4.9c0.1,0.3,0.1,0.4,0.2,0.6
						c0.1,0.3,0.3,0.6,0.3,1l0.3,1.3l-1.3,0.3c-0.9,0.2-1.8,0.2-2.6,0.2c-0.3,0-0.6,0-0.9,0c-3.8,2.7-7.6,5.3-11.4,7.9L409.1,161z
						 M413,149.4c0.3,0,0.6,0,0.9,0l0.8,0l-0.3,0.8c-0.5,1.4-1.1,2.9-1.6,4.3l-0.1,0.3c-0.3,0.8-0.6,1.7-1,2.5l-0.2,0.5l0.4-0.3
						c3.8-2.7,7.6-5.3,11.4-8l0.2-0.1l0.2,0c0.4,0,0.7,0,1.1,0c0.8,0,1.6,0,2.3-0.1l0.2,0l0-0.2c-0.1-0.3-0.2-0.6-0.3-0.8
						c-0.1-0.2-0.2-0.4-0.3-0.7c-0.6-1.7-0.5-3.5-0.5-5.2l0-0.2c0-0.1,0-0.2,0.1-0.4c0-0.2,0.1-0.3,0.1-0.4c0.4-2.8,2-5.3,4.4-7
						c1.5-1.1,3.2-1.7,4.9-2c0.6-0.1,1.2-0.1,1.8-0.1c0.4,0,0.8,0,1.2,0l0.2,0l0-0.2c-0.3-2.5-1.5-5-3.4-7.1l-0.3-0.3l0-0.1
						l-0.1-0.1l-0.2-0.1c-0.1,0-0.2-0.1-0.3-0.2l-0.1-0.1c-2.4-2.1-5.7-3.3-9-3.3c-2.6,0-5.1,0-7.6,0c-2.9,0-5.8,0-8.8,0
						c-1.7,0.1-3,0.4-4.2,0.9c-1.5,0.5-2.9,1.3-4.2,2.5l-1,0.9v-0.1l-0.2,0.4l-0.3,0.3h0l-0.6,0.9c-0.8,1.1-1.3,2.3-1.7,3.3
						c-0.5,1.3-0.7,2.6-0.7,4.4c0,0.9,0,1.8,0,2.7c0.3,4.6,3.1,9,7.4,11.1c1.9,1,4.1,1.5,6.5,1.4c0.6,0,1.2,0,1.8,0
						C412.3,149.4,412.7,149.4,413,149.4z M412.2,157l0.8-2.2c0.7-1.8,1.4-3.6,2-5.4l0.1-0.2l-0.2,0c-0.6,0-1.3,0-1.9,0l-1.1,0
						c-0.7,0-1.3,0-1.8,0c-2.4,0-4.5-0.5-6.3-1.4c-4.1-2-7-6.3-7.2-10.8c0-0.9-0.1-1.8,0-2.7c0-1.7,0.3-3.1,0.7-4.3
						c0.5-1.4,1.3-2.9,2.5-4.4c1.7-1.8,3.5-3,5.3-3.7c1.1-0.5,2.4-0.7,4.1-0.8c5.5,0,10.9,0,16.3,0c0,0,0,0,0,0
						c3.3,0,6.5,1.2,8.9,3.2l0.1,0.1c0.1,0.1,0.2,0.2,0.3,0.3l0.3,0.3c1.8,1.9,3,4.1,3.4,6.4l0.1,0.7l-1,0c-0.7,0-1.3,0-1.9,0.1
						c-1.8,0.2-3.5,0.9-5,2c-2.4,1.8-4.1,4.4-4.5,7.2c0,0.1,0,0.2-0.1,0.4c-0.1,0.2-0.1,0.4-0.1,0.7l0,0.1l0,0.1
						c0,1.6-0.1,3.5,0.5,5.2c0.1,0.3,0.1,0.4,0.2,0.6l0.3,0.8l-0.8,0c-0.4,0-0.8,0-1.3,0c-0.4,0-0.8,0-1.2,0c-0.2,0-0.3,0.1-0.4,0.1
						l-0.1,0.1c-3.1,2.2-6.3,4.4-9.4,6.6L412.2,157z M413,147.9c0.7,0,1.3,0,2,0l1.8,0.1l-0.6,1.7c-0.5,1.4-1,2.7-1.5,4.1
						c2.6-1.8,5.3-3.7,7.9-5.5l0.1-0.1c0.2-0.1,0.5-0.3,1-0.3c0.4,0,0.8,0,1.2,0c0.1,0,0.3,0,0.4,0c-0.6-1.8-0.6-3.8-0.5-5.4
						c-0.1-0.5,0-0.9,0.1-1.2c0-0.1,0-0.1,0-0.1c0.5-3.2,2.3-6.1,5-8.1c1.7-1.2,3.6-2,5.6-2.2c0.5-0.1,1-0.1,1.6-0.1
						c-0.5-1.8-1.5-3.5-3-5.1l0.3-0.5l-0.4,0.4l-0.1-0.1c-0.1,0-0.2-0.2-0.3-0.3l-0.1-0.1c-2.1-1.9-5-2.9-8.1-2.9
						c-5.4,0-10.8,0-16.2,0c-1.5,0.1-2.7,0.4-3.7,0.8c-1.7,0.6-3.4,1.7-4.9,3.3c-1.1,1.3-1.8,2.7-2.3,4c-0.4,1.1-0.6,2.4-0.6,3.9
						c0,0.9,0,1.7,0,2.6c0.2,4,2.9,8,6.5,9.8c1.7,0.9,3.7,1.3,5.8,1.3c0.6,0,1.2,0,1.7,0L413,147.9z"/>
				</g>
			</g>
		</g>
		<g>
			<path class="st0" d="M601.9,427.8c-0.8-1.5-2-2.8-3.3-3.8l2.1-4.2l-4.3-2.1l-2.1,4.2c-1.7-0.5-3.4-0.6-5-0.4l-1.5-4.5l-4.5,1.5
				l1.5,4.5c-1.5,0.8-2.8,2-3.8,3.3l-4.2-2.1l-2.1,4.3l4.2,2.1c-0.5,1.7-0.6,3.4-0.4,5l-4.5,1.5l1.5,4.5l4.5-1.5
				c0.8,1.4,1.9,2.7,3.3,3.8l-2.1,4.2l4.3,2.1l2.1-4.2c1.7,0.5,3.4,0.6,5.1,0.4l1.5,4.4l4.5-1.5l-1.5-4.5c1.5-0.8,2.8-2,3.8-3.3
				l4.2,2.1l2.1-4.3l-4.2-2.1c0.5-1.7,0.6-3.4,0.4-5.1l4.4-1.5l-1.5-4.5L601.9,427.8z M595.6,436.3c-1.3,2.6-4.4,3.6-7,2.4
				c-2.6-1.3-3.6-4.4-2.4-7c1.3-2.6,4.4-3.6,7-2.4C595.8,430.6,596.9,433.7,595.6,436.3z"/>
		</g>
		<g>
			<g>
				<g>
					<g>
						<path class="st0" d="M60.9,235.8c-0.7-1-2.1-1.2-3.1-0.5l-1.2,0.9c-0.5,0.4-0.8,0.9-0.9,1.5l-10.6-14.7
							c0.6,0.2,1.3,0.1,1.8-0.3l1.2-0.9c1-0.7,1.2-2.1,0.5-3.1l-4-5.5c-0.6-0.9-1.7-1.1-2.6-0.7c-0.1,0.1-0.3,0.1-0.4,0.2l-1.2,0.9
							c-0.7,0.5-1,1.3-0.9,2.1c-0.1,0.1-0.2,0.2-0.3,0.2c-2.8,2.4-3.3,6.5-1.1,9.5l13.4,18.6c1.7,2.3,4.4,3.3,7,2.8
							c0.4-0.1,1.2-0.3,2.1-0.8c0.1,0,0.2-0.1,0.2-0.1c0,0,0,0,0,0c0.1-0.1,0.2-0.1,0.3-0.2c0.6,0.2,1.3,0.1,1.9-0.3l0.1-0.1
							l1.1-0.8c0.5-0.3,0.8-0.8,0.9-1.4c0.1-0.6,0-1.2-0.4-1.7L60.9,235.8z"/>
					</g>
					<g>
						<path class="st0" d="M57.5,221.3l-2.9,2.6v3.2h16v-4.3h-8.5v-0.1l2.1-1.7c3.3-2.9,6-5.9,6-9.7c0-4.1-2.8-7.1-7.9-7.1
							c-3,0-5.7,1-7.4,2.3l1.5,3.8c1.2-0.9,2.9-1.9,4.8-1.9c2.6,0,3.7,1.5,3.7,3.3C64.8,214.3,62.5,216.9,57.5,221.3z"/>
					</g>
					<g>
						<g>
							<path class="st0" d="M81.7,204.6l-8.5,13.7v3.4h10v5.4h5v-5.4h2.7v-3.9h-2.7v-13.2H81.7z M83.2,212.8v5h-5.1v-0.1l3-4.9
								c0.8-1.4,1.4-2.7,2.1-4.2h0.1C83.2,210,83.2,211.4,83.2,212.8z"/>
						</g>
					</g>
					<g>
						<path class="st0" d="M93,234.4c3.5-4.9,5.6-11,5.6-17.5c0-16.6-13.5-30.1-30.1-30.1c-2.6,0-5.1,0.3-7.5,0.9l-4.8-0.9l0.7,2.3
							c-9.3,3.9-16.3,12.3-18.1,22.6l2.8-1c1.1-5,3.7-9.6,7.4-13.3c2.5-2.5,5.5-4.5,8.7-5.9l1,3.1l4.6-4.8c1.7-0.3,3.5-0.5,5.3-0.5
							c7.4,0,14.3,2.9,19.5,8.1c5.2,5.2,8.1,12.1,8.1,19.5c0,5.8-1.8,11.3-5,15.9l-2.3-1.9l-1.1,5.9c-5.2,5-11.9,7.7-19.1,7.7
							c-0.1,0-0.2,0-0.3,0l-1.8,2.4c0.7,0,1.4,0.1,2.1,0.1c8.3,0,15.7-3.3,21.2-8.7l5.4-2.1L93,234.4z"/>
					</g>
				</g>
			</g>
		</g>
	</g>
	<g>
		<g>
			<g>
				<path class="st0" d="M210.3,168.3l8-30.2l-12.5-3.3l1.5-5.8l-2.9-0.8l-1.5,5.8l-12.2-3.2l1.5-5.8l-3-0.8l-1.5,5.8l-12.2-3.2
					l1.5-5.8l-3-0.8l-1.5,5.8l-12.5-3.3l-13.3,50.3l37.8,10c0.2,7.3,5,14,12.3,15.9c8.8,2.3,18-3.1,20.4-12.1
					C219.1,179.5,216.1,172.1,210.3,168.3L210.3,168.3z M162.1,126.3l9.6,2.5l-1.7,6.3l2.9,0.8l1.7-6.3l12.3,3.2l-1.7,6.3l2.9,0.8
					l1.7-6.3l12.2,3.2l-1.7,6.3l2.9,0.8l1.7-6.3l9.6,2.5l-3.6,13.6l-52.5-13.9L162.1,126.3z M184.7,179.8l-34.3-9.1l7.4-27.9
					l52.5,13.9l-2.7,10c-0.7-0.3-1.4-0.5-2.2-0.7c-8.8-2.3-18,3.1-20.4,12.1C184.9,178.7,184.7,179.2,184.7,179.8L184.7,179.8z
					 M197.5,195.8c-7.2-1.9-11.5-9.5-9.6-16.9c2-7.4,9.5-11.9,16.7-10c7.2,1.9,11.5,9.5,9.6,16.9
					C212.3,193.3,204.7,197.7,197.5,195.8L197.5,195.8z M197.5,195.8"/>
			</g>
		</g>
		<g>
			<path class="st0" d="M200.1,179.9l-4.7-1.3l-0.8,2.9l7.7,2l3.1-11.6l-3-0.8L200.1,179.9z M200.1,179.9"/>
		</g>
	</g>
	<g>
		<g>
			<g>
				<path class="st0" d="M693,430.3l-13.6,1.5l-2.9-26.1l13.6-1.5L693,430.3z M681.8,428.7l8-0.9l-2.3-20.6l-8,0.9L681.8,428.7z"/>
			</g>
		</g>
		<g>
			<g>
				<path class="st0" d="M709.4,428.4l-13.6,1.5l-3.5-31.3l13.6-1.5L709.4,428.4z M698.3,426.8l8.1-0.9l-2.9-25.7l-8.1,0.9
					L698.3,426.8z"/>
			</g>
		</g>
		<g>
			<g>
				<path class="st0" d="M725.9,426.6l-13.6,1.5l-4.1-36.4l13.6-1.5L725.9,426.6z M714.7,425l8-0.9l-3.4-30.8l-8,0.9L714.7,425z"/>
			</g>
		</g>
	</g>
	<g>
		<g>
			<path class="st0" d="M687.9,251.8c-2.2,0-4.2,1.1-5.5,2.7l-10.6-5.9c0.2-0.7,0.4-1.5,0.4-2.3c0-0.8-0.1-1.6-0.4-2.3l10.6-5.9
				c1.3,1.6,3.2,2.7,5.5,2.7c3.8,0,6.9-3.1,6.9-6.9c0-3.8-3.1-6.9-6.9-6.9s-6.9,3.1-6.9,6.9c0,0.8,0.1,1.6,0.4,2.3l-10.6,5.9
				c-1.3-1.6-3.2-2.7-5.5-2.7c-3.8,0-6.9,3.1-6.9,6.9c0,3.8,3.1,6.9,6.9,6.9c2.2,0,4.2-1.1,5.5-2.7l10.6,5.9
				c-0.3,0.7-0.4,1.5-0.4,2.3c0,3.8,3.1,6.9,6.9,6.9c3.8,0,6.9-3.1,6.9-6.9C694.8,254.9,691.7,251.8,687.9,251.8L687.9,251.8z
				 M687.9,229.2c2.6,0,4.7,2.1,4.7,4.7c0,2.6-2.1,4.7-4.7,4.7c-2.6,0-4.7-2.1-4.7-4.7C683.1,231.3,685.3,229.2,687.9,229.2
				L687.9,229.2z M665.3,251c-2.6,0-4.7-2.1-4.7-4.7c0-2.6,2.1-4.7,4.7-4.7c2.6,0,4.7,2.1,4.7,4.7C670.1,248.9,667.9,251,665.3,251
				L665.3,251z M687.9,263.4c-2.6,0-4.7-2.1-4.7-4.7c0-2.6,2.1-4.7,4.7-4.7c2.6,0,4.7,2.1,4.7,4.7
				C692.6,261.3,690.5,263.4,687.9,263.4L687.9,263.4z M687.9,263.4"/>
		</g>
	</g>
	<g>
		<g>
			<path class="st0" d="M634.7,545.7c-0.3-0.1-0.5-0.2-0.6-0.5l-6.9-10.8c-0.3-0.5-0.2-1.2,0.3-1.5c0.3-0.2,0.6-0.2,0.8-0.1
				c0.3,0.1,0.5,0.2,0.6,0.5l6.9,10.8c0.3,0.5,0.2,1.2-0.3,1.5C635.3,545.7,635,545.8,634.7,545.7z"/>
		</g>
		<g>
			<path class="st0" d="M604.5,538c-0.3-0.1-0.5-0.3-0.7-0.5c-0.1-0.2-0.2-0.5-0.1-0.8c0.1-0.3,0.3-0.5,0.5-0.6l11.2-6.2
				c0.2-0.1,0.5-0.2,0.8-0.1c0.3,0.1,0.5,0.3,0.7,0.5c0.3,0.5,0.1,1.2-0.4,1.5l-11.3,6.2C605,538,604.7,538,604.5,538z"/>
		</g>
		<g>
			<path class="st0" d="M597.1,544.5c-2.3-0.6-3.7-3-3.1-5.3l6.9-26.9c0.6-2.3,3-3.7,5.3-3.1l41,10.5c2.3,0.6,3.7,3,3.1,5.3
				l-6.9,26.9c-0.6,2.3-3,3.7-5.3,3.1L597.1,544.5z M605.6,511.3c-1.2-0.3-2.3,0.4-2.6,1.6l-6.9,26.9c-0.3,1.2,0.4,2.3,1.6,2.6
				l41,10.5c1.2,0.3,2.3-0.4,2.6-1.6l6.9-26.9c0.3-1.2-0.4-2.3-1.6-2.6L605.6,511.3z"/>
		</g>
		<g>
			<path class="st0" d="M621,536.3c-1.2-0.3-2.1-1-2.8-1.9l-15.7-22.8c-0.2-0.2-0.2-0.5-0.2-0.8c0.1-0.3,0.2-0.5,0.4-0.7
				c0.3-0.2,0.6-0.2,0.9-0.2c0.3,0.1,0.5,0.2,0.6,0.4l15.7,22.8c0.3,0.5,0.9,0.9,1.5,1c0.6,0.2,1.3,0.1,1.8-0.2l24.7-12.4
				c0.2-0.1,0.5-0.1,0.8-0.1c0.3,0.1,0.6,0.3,0.7,0.6c0.3,0.5,0.1,1.2-0.5,1.4L624.4,536C623.4,536.5,622.2,536.6,621,536.3z"/>
		</g>
	</g>
	<g>
		<g>
			<g>
				<path class="st0" d="M579.8,28.5c-6.2,0-11.3-5.1-11.3-11.3c0-6.2,5.1-11.3,11.3-11.3c6.2,0,11.3,5.1,11.3,11.3
					C591.1,23.5,586.1,28.5,579.8,28.5z M579.8,8.8c-4.7,0-8.5,3.8-8.5,8.5c0,4.7,3.8,8.5,8.5,8.5c4.7,0,8.5-3.8,8.5-8.5
					C588.3,12.6,584.5,8.8,579.8,8.8z"/>
			</g>
		</g>
		<g>
			<g>
				<path class="st0" d="M604.4,47.9h-49.2v-1.4c0-0.7,0-1.5,0-2.3c-0.1-6.8-0.2-16.1,3.6-19.9c1.1-1.2,2.6-1.7,4.2-1.7h5.4l0.4,0.7
					c2.2,4,6.4,6.5,11,6.5c4.6,0,8.8-2.5,11-6.5l0.4-0.7h5.4c1.6,0,3,0.6,4.2,1.7c3.8,3.8,3.7,13.1,3.6,19.9c0,0.8,0,1.6,0,2.3V47.9
					z M558.1,45.1h43.5c0-0.3,0-0.6,0-0.9c0.1-5.6,0.2-14.9-2.8-17.9c-0.6-0.6-1.3-0.9-2.2-0.9h-3.8c-2.8,4.5-7.7,7.2-13.1,7.2
					c-5.3,0-10.2-2.7-13-7.2H563c-0.9,0-1.6,0.3-2.2,0.9c-2.9,3-2.8,12.3-2.8,17.9C558.1,44.5,558.1,44.8,558.1,45.1z"/>
			</g>
		</g>
	</g>
	<g>
		<g>
			<path class="st0" d="M568.8,176.5v-3h1.3c0.7,0,1.3-0.6,1.3-1.3c0-0.7-0.6-1.3-1.3-1.3h-22.9c-0.7,0-1.3,0.6-1.3,1.3
				c0,0.7,0.6,1.3,1.3,1.3h1.3v3c0,4.5,2.4,8.6,6.1,11c-3.8,2.4-6.1,6.5-6.1,11v3h-1.3c-0.7,0-1.3,0.6-1.3,1.3
				c0,0.7,0.6,1.3,1.3,1.3H570c0.7,0,1.3-0.6,1.3-1.3c0-0.7-0.6-1.3-1.3-1.3h-1.3v-3c0-4.5-2.4-8.6-6.2-11
				C566.4,185.1,568.8,181,568.8,176.5L568.8,176.5z M566.2,198.5v3h-15.3v-3c0-4.2,2.6-8,6.6-9.7h2
				C563.6,190.5,566.2,194.3,566.2,198.5L566.2,198.5z M559.6,186.2h-2c-4-1.7-6.6-5.5-6.6-9.7v-3h15.3v3
				C566.2,180.7,563.6,184.5,559.6,186.2L559.6,186.2z M559.6,186.2"/>
		</g>
		<g>
			<path class="st0" d="M545.2,162.7l-16.5-11.9c-0.5-0.4-1.2-0.3-1.6,0.1c-0.4,0.4-0.5,1.1-0.1,1.6l11.9,16.5
				c0.8,1.1,2,1.8,3.3,1.9c0.1,0,0.2,0,0.4,0c1.2,0,2.4-0.5,3.2-1.3c0.9-0.9,1.4-2.2,1.3-3.6C547,164.7,546.3,163.5,545.2,162.7
				L545.2,162.7z M544,167.8c-0.4,0.4-1,0.6-1.6,0.6c-0.6-0.1-1.1-0.3-1.5-0.8l-7.3-10.1l10.1,7.3c0.5,0.3,0.8,0.9,0.8,1.5
				C544.6,166.8,544.4,167.4,544,167.8L544,167.8z M544,167.8"/>
		</g>
		<g>
			<path class="st0" d="M540.7,127.6c-0.7,0-1.3,0.6-1.3,1.3v16.9c0,0.7,0.6,1.3,1.3,1.3c0.7,0,1.3-0.6,1.3-1.3v-15.6
				c19.1,0.7,34.4,16.4,34.4,35.6c0,4.4-0.8,8.7-2.4,12.9c-0.3,0.7,0.1,1.4,0.7,1.6c0.1,0.1,0.3,0.1,0.5,0.1c0.5,0,1-0.3,1.2-0.8
				c1.7-4.4,2.6-9,2.6-13.8C578.9,144.8,561.8,127.6,540.7,127.6L540.7,127.6z M540.7,127.6"/>
		</g>
		<g>
			<path class="st0" d="M532.1,200.5c-15.9-3.9-27.1-18.2-27.1-34.6c0-9.5,3.7-18.4,10.4-25.2c0.5-0.5,0.5-1.3,0-1.8
				c-0.5-0.5-1.3-0.5-1.8,0c-7.2,7.2-11.1,16.8-11.1,27c0,17.6,11.9,32.9,29,37.1c0.1,0,0.2,0,0.3,0c0.6,0,1.1-0.4,1.2-1
				C533.2,201.3,532.8,200.6,532.1,200.5L532.1,200.5z M532.1,200.5"/>
		</g>
	</g>
	<g>
		<g>
			<path class="st0" d="M299,92.4c0.2,0.1,0.5,0.1,0.7,0.1c0.4,0,0.8-0.2,1.1-0.6l8.4-10l17.6-1.9c3.9-0.4,6.7-3.9,6.2-7.8
				l-2.1-19.7c-0.4-3.9-3.9-6.7-7.8-6.2l-32.3,3.5c-3.9,0.4-6.7,3.9-6.2,7.8l2.1,19.7c0.4,3.9,3.9,6.7,7.8,6.2l2.5-0.3l0.8,7.7
				C297.9,91.7,298.3,92.3,299,92.4L299,92.4z M294.1,80.2c-2,0.2-3.8-1.2-4-3.2l-2.1-19.7c-0.2-2,1.2-3.8,3.2-4l32.3-3.5
				c2-0.2,3.8,1.2,4,3.2l2.1,19.7c0.2,2-1.2,3.8-3.2,4l-18.3,2c-0.4,0-0.8,0.3-1.1,0.6l-6.3,7.5l-0.6-5.5c-0.1-0.9-0.9-1.6-1.9-1.5
				L294.1,80.2L294.1,80.2z M294.1,80.2"/>
		</g>
		<g>
			<path class="st0" d="M296,63.5l24.1-2.6c0.9-0.1,1.6-0.9,1.5-1.9c-0.1-0.9-0.9-1.6-1.9-1.5l-24.1,2.6c-0.9,0.1-1.6,0.9-1.5,1.9
				C294.2,63,295.1,63.6,296,63.5L296,63.5z M296,63.5"/>
		</g>
		<g>
			<path class="st0" d="M322.6,68.2c-0.1-0.9-0.9-1.6-1.9-1.5l-24.1,2.6c-0.9,0.1-1.6,0.9-1.5,1.9c0.1,0.9,0.9,1.6,1.9,1.5l24.1-2.6
				C322,69.9,322.7,69.1,322.6,68.2L322.6,68.2z M322.6,68.2"/>
		</g>
		<g>
			<path class="st0" d="M319.3,109.3l-2.4-22.4c-0.1-0.9-0.9-1.6-1.9-1.5c-0.9,0.1-1.6,0.9-1.5,1.9l2.4,22.5
				c0.2,1.5-0.9,2.9-2.5,3.1l-39.3,4.3c-1.5,0.2-2.9-0.9-3.1-2.5l-7.7-70.8c-0.2-1.5,1-2.9,2.5-3.1l39.3-4.3
				c1.5-0.2,2.9,0.9,3.1,2.5l0.4,3.5c0.1,0.9,0.9,1.6,1.9,1.5c0.9-0.1,1.6-0.9,1.5-1.9l-0.4-3.5c-0.4-3.4-3.4-5.9-6.8-5.5l-39.3,4.3
				c-3.4,0.4-5.9,3.4-5.5,6.8l7.7,70.8c0.4,3.4,3.4,5.9,6.8,5.5l39.3-4.3C317.2,115.8,319.7,112.7,319.3,109.3L319.3,109.3z
				 M319.3,109.3"/>
		</g>
		<g>
			<path class="st0" d="M297.8,104.3l-10.1,1.1c-0.9,0.1-1.6,0.9-1.5,1.9c0.1,0.9,0.9,1.6,1.9,1.5l10.1-1.1c0.9-0.1,1.6-0.9,1.5-1.9
				C299.5,104.9,298.7,104.2,297.8,104.3L297.8,104.3z M297.8,104.3"/>
		</g>
	</g>
	<g>
		<g>
			<path class="st0" d="M467.3,79.9c-0.4-0.1-0.8,0-1,0.4c-0.9,2.3-3.2,3.9-5.7,3.9H437c-0.2,0-0.4,0.1-0.5,0.2l-11.5,11V85
				c0-0.4-0.3-0.7-0.7-0.7h-5.4c-3.4,0-6.1-2.7-6.1-6.1V52.6c0-3.4,2.7-6.1,6.1-6.1h25.6c0.4,0,0.7-0.3,0.7-0.7
				c0-0.4-0.3-0.7-0.7-0.7h-25.6c-4.2,0-7.6,3.4-7.6,7.6v25.5c0,4.2,3.4,7.6,7.6,7.6h4.6v11.4c0,0.3,0.2,0.6,0.4,0.7
				c0.1,0,0.2,0.1,0.3,0.1c0.2,0,0.4-0.1,0.5-0.2l12.5-12h23.4c3.1,0,5.9-1.9,7.1-4.8C467.9,80.5,467.7,80.1,467.3,79.9L467.3,79.9z
				 M467.3,79.9"/>
			<path class="st0" d="M424.3,98.5c-0.2,0-0.3,0-0.5-0.1c-0.5-0.2-0.8-0.7-0.8-1.2V86.3h-4c-4.5,0-8.2-3.7-8.2-8.2V52.6
				c0-4.5,3.7-8.2,8.2-8.2h25.6c0.7,0,1.3,0.6,1.3,1.3c0,0.7-0.6,1.3-1.3,1.3h-25.6c-3,0-5.5,2.5-5.5,5.5v25.5c0,3,2.5,5.5,5.5,5.5
				h5.4c0.7,0,1.3,0.6,1.3,1.3v9l10.4-10c0.2-0.2,0.6-0.4,0.9-0.4h23.6c2.3,0,4.3-1.4,5.1-3.5c0.1-0.3,0.4-0.6,0.7-0.7
				c0.3-0.1,0.7-0.1,1,0h0c0.3,0.1,0.6,0.4,0.7,0.7c0.1,0.3,0.2,0.7,0,1c-1.2,3.1-4.3,5.2-7.6,5.2h-23.1l-12.3,11.8
				C424.9,98.4,424.6,98.5,424.3,98.5z M418.9,45.6c-3.9,0-7,3.1-7,7v25.5c0,3.9,3.1,7,7,7h5.2v12c0,0.1,0,0.1,0.1,0.1
				c0.1,0,0.1,0,0.2,0L437,85.1h23.6c2.8,0,5.5-1.8,6.5-4.4l0.1-0.7l-0.2,0.6c-0.1,0-0.2,0-0.2,0.1c-1,2.6-3.5,4.3-6.3,4.3H437
				l-12.6,12V85c0-0.1-0.1-0.1-0.1-0.1h-5.4c-3.7,0-6.7-3-6.7-6.7V52.6c0-3.7,3-6.7,6.7-6.7h25.6c0.1,0,0.1-0.1,0.1-0.1
				c0-0.1-0.1-0.1-0.1-0.1H418.9z"/>
		</g>
		<g>
			<path class="st0" d="M471.2,54.9c-0.8-1.9-2.7-3.2-4.8-3.2h-8.7v-6.3c0-2.5-0.7-4.3-2.1-5.3c-2.3-1.6-5.4-0.7-5.5-0.7
				c-0.3,0.1-0.5,0.4-0.5,0.7v6.8c0,2.3-1.1,4.3-3.3,5.8c-1.7,1.2-3.4,1.7-3.4,1.7c-0.1,0-0.2,0.1-0.2,0.1c-0.1-0.6-0.6-1-1.2-1
				h-7.3c-0.7,0-1.2,0.5-1.2,1.2v19.4c0,0.7,0.5,1.2,1.2,1.2h7.3c0.5,0,0.9-0.3,1.1-0.7c1,1.1,2.3,1.7,3.9,1.7h16.7
				c3.6,0,5.8-1.9,6.2-5.1l2.2-13.7C471.6,56.6,471.5,55.7,471.2,54.9L471.2,54.9z M441.2,73.9h-6.8V55h6.8V73.9z M470,57.3
				L467.9,71v0c-0.4,3.2-2.8,3.8-4.8,3.8h-16.7c-2.1,0-3.7-1.7-3.7-3.7V55.7c0.2,0.1,0.4,0.2,0.6,0.1c0.1,0,1.9-0.6,3.8-1.9
				c2.6-1.8,3.9-4.2,3.9-7v-6.2c0.8-0.1,2.5-0.3,3.7,0.6c1,0.7,1.5,2.1,1.5,4.1v7c0,0.4,0.3,0.7,0.7,0.7h9.4c1.5,0,2.8,0.9,3.4,2.3
				C470,56,470.1,56.7,470,57.3L470,57.3z M470,57.3"/>
			<path class="st0" d="M463.1,77h-16.7c-1.4,0-2.8-0.5-3.8-1.4c-0.3,0.3-0.7,0.4-1.1,0.4h-7.3c-1,0-1.8-0.8-1.8-1.8V54.7
				c0-1,0.8-1.8,1.8-1.8h7.3c0.6,0,1.2,0.3,1.5,0.9c0.5-0.2,1.7-0.7,3-1.5c2-1.4,3-3.2,3-5.3v-6.8c0-0.6,0.4-1.1,0.9-1.3
				c0,0,3.5-1.1,6,0.7c1.6,1.2,2.4,3.1,2.4,5.8v5.7h8.1c2.3,0,4.4,1.4,5.4,3.6c0.4,0.9,0.5,2,0.4,3l-2.2,13.7
				C469.5,74.9,466.9,77,463.1,77z M442.4,73.6l0.6,0.7c0.9,1,2.1,1.5,3.4,1.5h16.7c3.3,0,5.3-1.6,5.6-4.6l2.2-13.7
				c0.1-0.8,0-1.6-0.3-2.4l0,0c-0.7-1.7-2.4-2.8-4.2-2.8h-9.3v-6.9c0-2.3-0.6-3.9-1.9-4.8c-2-1.5-4.9-0.6-4.9-0.6
				c-0.1,0-0.1,0.1-0.1,0.1v6.8c0,2.5-1.2,4.6-3.5,6.3c-1.5,1.1-3.1,1.6-3.6,1.8l0,0l-0.2,0.1l0.2,0.1c0.6-0.1,2.2-0.7,3.7-1.8
				c2.4-1.7,3.7-4,3.7-6.5v-6.7l0.5-0.1c1.2-0.2,2.8-0.3,4.1,0.7c1.2,0.9,1.8,2.4,1.8,4.6v7c0,0.1,0.1,0.1,0.1,0.1h9.4
				c1.7,0,3.3,1,4,2.7c0.3,0.6,0.4,1.4,0.3,2.2v0l-2.2,13.7c-0.3,2.8-2.2,4.3-5.4,4.3h-16.7c-2.4,0-4.3-1.9-4.3-4.3V54.6
				c-0.1-0.3-0.3-0.5-0.6-0.5h-7.3c-0.3,0-0.6,0.3-0.6,0.6v19.4c0,0.3,0.3,0.6,0.6,0.6h7.3c0.2,0,0.5-0.1,0.6-0.3L442.4,73.6z
				 M443.3,56.4v14.7c0,1.7,1.4,3.1,3.1,3.1h16.7c2.5,0,3.9-1.1,4.2-3.3l2.2-13.8c0.1-0.6,0-1.1-0.2-1.5c-0.5-1.2-1.6-1.9-2.9-1.9
				h-9.4c-0.7,0-1.3-0.6-1.3-1.3v-7c0-1.8-0.4-3-1.3-3.6c-0.8-0.6-1.8-0.6-2.7-0.5v5.7c0,3-1.4,5.6-4.2,7.5c-1.7,1.2-3.5,1.8-4,2
				C443.4,56.4,443.3,56.4,443.3,56.4z M441.8,74.5h-8V54.4h8V74.5z M435,73.3h5.6V55.6H435V73.3z"/>
		</g>
	</g>
	<g>
		<g>
			<g>
				<path class="st0" d="M251.1,262.4c-1.3,0-2.3-0.9-2.6-1.2c-1.1-1.1-7.1-8.4-7.4-8.7c-1.2-1.2-2-3-2-4.9c0-1.9,0.7-3.6,2.1-5
					l0.2-0.2c1.3-1.3,3.1-2.1,5-2.1c1.8,0,3.4,0.6,4.7,1.8c1.3-1.2,3-1.8,4.7-1.8c1.9,0,3.7,0.7,5,2.1l0.2,0.2
					c1.3,1.3,2.1,3.1,2.1,5c0,1.9-0.7,3.6-2,4.9c-1.9,2.3-6.5,7.9-7.3,8.7C253.4,261.5,252.5,262.4,251.1,262.4z M246.4,242.8
					c-1.2,0-2.4,0.5-3.3,1.4l-0.2,0.2c-0.9,0.9-1.4,2-1.4,3.3c0,1.2,0.5,2.4,1.3,3.2c1.8,2.2,6.5,7.8,7.3,8.7l0,0
					c0.7,0.7,1,0.7,1.7,0c0.6-0.6,4.1-4.8,7.2-8.5l0.1-0.1c0.9-0.9,1.3-2,1.3-3.2c0-1.2-0.5-2.4-1.4-3.3l-0.2-0.2
					c-1.7-1.7-4.8-1.7-6.6,0c-0.3,0.3-0.8,0.7-1.4,0.7c-0.6,0-1.1-0.3-1.5-0.7l0,0C248.8,243.3,247.6,242.8,246.4,242.8z"/>
			</g>
		</g>
	</g>
	<g>
		<g>
			<g>
				<path class="st0" d="M76.4,527.2c-7.4,0.4-13.7,5.3-16.1,12.3c-0.2,0.7,0.1,1.4,0.8,1.6c0.7,0.2,1.4-0.1,1.6-0.8
					c2-6.1,7.5-10.2,13.9-10.6c6.4-0.4,12.3,3.1,15.1,8.9c0.2,0.5,0.7,0.7,1.2,0.7c0.2,0,0.3,0,0.5-0.1c0.6-0.3,0.9-1.1,0.6-1.7
					C90.7,530.9,83.9,526.8,76.4,527.2L76.4,527.2z M76.4,527.2"/>
			</g>
		</g>
		<g>
			<path class="st0" d="M117,465.6c-5-3.5-11.4-5.2-18-4.8c-6.7,0.4-12.8,2.8-17.3,6.9c-4.6,4.1-6.9,9.4-6.6,14.9
				c0.6,9.6,9.4,17.3,21.1,18.6c0.4,3-0.5,6.2-2.5,8.5c-0.3,0.4-0.4,0.9-0.2,1.4c0.2,0.5,0.7,0.7,1.2,0.7
				c6.2-0.4,11.2-5.1,12.1-11.2c5.3-1.2,10.1-3.9,13.5-7.4c3.7-3.9,5.6-8.7,5.3-13.6C125,474.1,122.1,469.1,117,465.6L117,465.6z
				 M105.2,498.3c-0.6,0.1-1.1,0.7-1,1.4c0,0,0,0,0,0c-0.4,4.2-3.2,7.6-6.9,8.9c1.3-2.6,1.8-5.7,1.2-8.6c0,0,0,0,0,0
				c0-0.7-0.5-1.2-1.2-1.3c-10.9-0.8-19.2-7.7-19.8-16.4c-0.6-9.8,9.1-18.4,21.6-19.1c12.5-0.7,23.1,6.6,23.7,16.4
				C123.4,488.3,115.9,496.2,105.2,498.3L105.2,498.3z M105.2,498.3"/>
		</g>
		<g>
			<path class="st0" d="M91.7,480.2c-0.7,0-1.3,0.7-1.3,1.4c0,0.7,0.7,1.3,1.4,1.3c0.7,0,1.3-0.7,1.3-1.4
				C93,480.8,92.4,480.2,91.7,480.2L91.7,480.2z M91.7,480.2"/>
		</g>
		<g>
			<path class="st0" d="M108.5,479.2c-0.7,0-1.3,0.7-1.3,1.4c0,0.7,0.7,1.3,1.4,1.3c0.7,0,1.3-0.7,1.3-1.4
				C109.9,479.7,109.3,479.2,108.5,479.2L108.5,479.2z M108.5,479.2"/>
		</g>
		<g>
			<path class="st0" d="M100.1,479.7c-0.7,0-1.3,0.7-1.3,1.4c0,0.7,0.7,1.3,1.4,1.3c0.7,0,1.3-0.7,1.3-1.4
				C101.5,480.3,100.8,479.7,100.1,479.7L100.1,479.7z M100.1,479.7"/>
		</g>
		<g>
			<path class="st0" d="M76.2,523.4c6.5-0.4,11.5-6,11.1-12.5c-0.4-6.5-6-11.5-12.5-11.1c-6.5,0.4-11.5,6-11.1,12.5
				C64.1,518.8,69.7,523.8,76.2,523.4L76.2,523.4z M75,502.4c5.1-0.3,9.5,3.6,9.8,8.7c0.3,5.1-3.6,9.5-8.7,9.8
				c-5.1,0.3-9.5-3.6-9.8-8.7C65.9,507.1,69.8,502.7,75,502.4L75,502.4z M75,502.4"/>
		</g>
	</g>
	<g>
		<path class="st0" d="M73.9,118.9c-2-4-6.3-6-10.6-4.9l-9.2,2.3c-0.4-3.6-2.5-5.7-6.7-6.7l-24.7-5.5c0.1-0.5,0.1-1.1,0.2-1.5
			c0-0.4-0.1-0.9-0.4-1.2c-2.4-2.3-12.2-3.1-15.1-3.2c-0.4,0-0.8,0.1-1.1,0.4c-0.3,0.3-0.4,0.6-0.4,1v25.6c0,0.8,0.6,1.4,1.4,1.4
			h8.5c0.6,0,1.2-0.4,1.4-1c0-0.1,0.2-0.7,0.5-1.6l20.4,6.8c2.4,0.9,4,1.4,5.9,1.4c2.9,0,6.3-1.3,13.7-4.3l15.7-7.1
			c0.4-0.2,0.6-0.5,0.8-0.8C74.1,119.6,74.1,119.2,73.9,118.9z M14.7,123.8H8.6v-22.7c4.6,0.4,9.5,1.1,11.3,2
			C19.2,109.4,15.8,120.4,14.7,123.8z M56.5,125.3c-12,4.9-12.4,4.8-17.5,2.8l-20.5-6.8c1.2-3.9,2.8-9.6,3.7-14.4l24.5,5.4
			c3.2,0.8,4.4,2,4.6,4.6l-2.7,0.7c-1,0.3-2.1,0.3-3.1,0.1l-12.3-2.5c-0.8-0.2-1.5,0.3-1.7,1.1s0.3,1.5,1.1,1.7l12.3,2.5
			c0.6,0.1,1.3,0.2,1.9,0.2c0.8,0,1.6-0.1,2.4-0.3l3.8-1c0,0,0,0,0,0l10.9-2.7c2.5-0.6,5,0.3,6.6,2.2L56.5,125.3z M47.4,94.9
			c0.3,0.3,0.6,0.4,1,0.4s0.8-0.2,1-0.4L62.8,81c1.7-1.8,2.7-4.2,2.7-7c0-4.9-3.3-9.1-7.7-9.9c-2.7-0.4-5.4,0.3-7.4,2
			c-0.8,0.7-1.4,1.4-2,2.3c-0.5-0.9-1.2-1.6-2-2.3c-2.1-1.7-4.7-2.5-7.4-2c-4.4,0.7-7.7,5-7.7,10.1c0,2.5,1,4.9,2.7,6.7L47.4,94.9z
			 M39.6,66.9c0.4-0.1,0.7-0.1,1.1-0.1c1.5,0,2.9,0.5,4,1.5c1.5,1.3,2.4,3.2,2.4,5.2c0,0.8,0.6,1.4,1.4,1.4s1.4-0.6,1.4-1.4
			c0-2,0.9-3.9,2.4-5.2c1.4-1.2,3.2-1.7,5.1-1.4c3,0.5,5.3,3.5,5.3,7.3c0,1.8-0.7,3.5-1.9,4.8L48.5,91.8L36.1,79
			c-1.2-1.3-1.9-3-1.9-5C34.2,70.5,36.5,67.4,39.6,66.9z"/>
	</g>
	<g>
		<g>
			<path class="st0" d="M413.9,253.3l-1.9-0.5l7.4-25.7c2.6-8.9-2.6-18.3-11.5-20.9l-0.5-0.1c-9.2-2.7-18.8,2.7-21.5,11.9l-2.1,7.1
				c-0.2,0.5,0.2,1.1,0.7,1.2l2.9,0.8l-0.5,1.9c-0.2,0.5,0.2,1.1,0.7,1.2l2.7,0.8c-0.7,1-2,1.5-3.2,1.1c-0.5-0.2-1.1,0.2-1.2,0.7
				l-0.3,1c-0.8,2.6,0.8,5.4,3.4,6.1l9.5,2.7l-1.6,5.7l-12.4-3.6c-7.9-2.3-16.1,2.3-18.4,10.2l-0.3,1l1.9,0.5l0.3-1
				c2-6.8,9.1-10.8,16-8.8l12.8,3.7l3.6,15c0.1,0.3,0.3,0.6,0.7,0.7c0,0,0,0,0.1,0c0.4,0.1,0.7,0,1-0.3l9.2-11.2l2.2,0.6
				L413.9,253.3z M399.9,241l-10.5-3c-1.6-0.5-2.5-2.1-2-3.7l0-0.1c2.3,0.2,4.5-1.3,5.2-3.6c0.2-0.5-0.2-1.1-0.7-1.2l-2.9-0.8
				l0.5-1.9c0.2-0.5-0.2-1.1-0.7-1.2l-2.9-0.8l1.8-6.2c2.3-8.1,10.9-12.9,19-10.5l0.5,0.1c7.9,2.3,12.5,10.5,10.2,18.4l-7.4,25.7
				l-11.4-3.3l1.9-6.7C400.7,241.7,400.4,241.2,399.9,241z M401.7,263l-2.9-11.9l10.3,3L401.7,263z"/>
		</g>
		<g>
			<path class="st0" d="M383.6,232.5c0.3-0.4,0.4-0.9,0.2-1.4l-3-7.3l3.8-13.3c1-3.4-1-7-4.4-8l-13.7-4c-3.4-1-7,1-8,4.4l-4.3,15
				c-1,3.4,1,7,4.4,8l23.7,6.8C382.8,233,383.3,232.8,383.6,232.5z M359.3,223.5c-2.1-0.6-3.3-2.8-2.7-4.8l4.3-15
				c0.6-2.1,2.8-3.3,4.8-2.7l13.7,4c2.1,0.6,3.3,2.8,2.7,4.8l-4,13.7c-0.1,0.3-0.1,0.6,0,0.9l2.2,5.2L359.3,223.5z"/>
		</g>
		<g>
			<path class="st0" d="M367.4,221.5c-4.3-1.2-6.9-5.5-5.7-9.5c1.1-4,5.6-6.2,9.9-4.9c4.3,1.2,6.9,5.5,5.7,9.5
				C376.1,220.5,371.7,222.7,367.4,221.5z M368.2,215.3c-0.3,1.3-0.4,2.6-0.4,3.4l0.1,0.8l0.5-0.7c0.5-0.7,1.1-1.8,1.5-3.1l0.1-0.3
				l-1.8-0.5L368.2,215.3z M371.9,216.3c-0.3,0.8-0.7,1.9-1.3,3l-0.3,0.5l0.6-0.1c1.7-0.3,3.1-1.2,3.9-2.5l0.2-0.3l-3-0.9
				L371.9,216.3z M363.4,214c0,1.5,0.7,3.1,2,4.2l0.5,0.4l0-0.6c0-1.2,0.3-2.4,0.4-3.2l0.1-0.3l-3-0.9L363.4,214z M373,210.6
				c0,1.2-0.3,2.4-0.4,3.2l-0.1,0.3l3,0.9l0-0.4c0-1.5-0.7-3.1-2-4.2L373,210L373,210.6z M370.5,209.6c-0.5,0.7-1.1,1.8-1.5,3.1
				l-0.1,0.3l1.8,0.5l0.1-0.3c0.3-1.3,0.4-2.6,0.4-3.4l-0.1-0.8L370.5,209.6z M368,208.8c-1.7,0.3-3.1,1.2-3.9,2.5l-0.2,0.3l3,0.9
				l0.1-0.3c0.3-0.8,0.7-1.9,1.3-3l0.3-0.5L368,208.8z"/>
		</g>
		<g>
			<path class="st0" d="M396,222.3c-1.6-0.5-2.5-2.1-2-3.7l-1.9-0.5c-0.8,2.6,0.8,5.4,3.4,6.1c2.6,0.8,5.4-0.8,6.1-3.4l-1.9-0.5
				C399.2,221.9,397.6,222.8,396,222.3z"/>
		</g>
		<g>
			<rect x="392.5" y="251.6" transform="matrix(0.277 -0.9609 0.9609 0.277 41.7728 560.6802)" class="st0" width="2" height="2"/>
		</g>
		<g>
			<rect x="388.7" y="250.5" transform="matrix(0.277 -0.9609 0.9609 0.277 40.0724 556.2219)" class="st0" width="2" height="2"/>
		</g>
		<g>
			<rect x="384.8" y="249.4" transform="matrix(0.277 -0.9609 0.9609 0.277 38.3721 551.7637)" class="st0" width="2" height="2"/>
		</g>
	</g>
	<g>
		<g>
			<path class="st0" d="M585.9,321.5l-4.7-4.7c-0.2-0.2-0.5-0.3-0.8-0.3c-0.3,0-0.6,0.1-0.8,0.3l-2.4,2.4l-2-2
				c0.9-1.3,0.7-3.2-0.4-4.3l0,0L561,299c-1.4-1.4-3.2-2.1-5.2-2.1c-2,0-3.8,0.8-5.2,2.1c-0.4,0.4-0.4,1.1,0,1.6
				c2.7,2.7,2.7,7.2,0,9.9c-0.4,0.4-0.4,1.1,0,1.6l4.5,4.5L531.8,340c-0.2,0.2-0.3,0.4-0.3,0.6l-1.8,9c-0.1,0.4,0,0.7,0.3,1
				c0.2,0.2,0.5,0.3,0.8,0.3c0.1,0,0.1,0,0.2,0l9-1.8c0.2,0,0.4-0.1,0.6-0.3l23.4-23.4l0.7,0.7c0.2,0.2,0.5,0.3,0.8,0.3
				c0.3,0,0.6-0.1,0.8-0.3l1.2-1.2l2,2l-2.4,2.4c-0.2,0.2-0.3,0.5-0.3,0.8c0,0.3,0.1,0.6,0.3,0.8l4.7,4.7c0.2,0.2,0.5,0.3,0.8,0.3
				s0.6-0.1,0.8-0.3l12.6-12.6C586.3,322.6,586.3,321.9,585.9,321.5z M553,300c0.8-0.5,1.8-0.8,2.8-0.8c1.4,0,2.6,0.5,3.6,1.5
				l4.1,4.1c-0.4,0.2-0.7,0.4-1,0.7l-7.7,7.7l-1.9-1.9C555.6,308,555.6,303.3,553,300z M558.8,320.3L537,342.2
				c-0.8-0.6-1.6-1.2-2.4-1.7l22.3-22.3L558.8,320.3z M535.1,345.6c-0.6-0.6-1.3-1-2-1.3l0.4-1.9c2.1,1.1,3.7,2.8,4.8,4.8l-1.9,0.4
				C536.1,346.9,535.6,346.2,535.1,345.6z M532.6,346.5c0.3,0.2,0.6,0.4,0.9,0.7c0.3,0.3,0.5,0.6,0.7,0.9l-1.9,0.4L532.6,346.5z
				 M540.2,346.2c-0.5-0.9-1-1.7-1.7-2.4l21.9-21.9l2.1,2.1L540.2,346.2z M565.5,323.8l-9.1-9.1l7.7-7.7c0.2-0.2,0.5-0.4,0.9-0.4
				c0.3,0,0.6,0.1,0.9,0.4l7.3,7.3c0.5,0.5,0.5,1.3,0,1.7L565.5,323.8z M569,323.4l4.7-4.7l2,2l-0.6,0.6l-4,4L569,323.4z
				 M572.5,333.3l-3.2-3.2l2.4-2.4c0,0,0,0,0,0l5.1-5.1l3.5-3.5l3.2,3.2L572.5,333.3z"/>
		</g>
		<g>
			<path class="st0" d="M585.5,333.3c-0.4-0.4-1.1-0.4-1.6,0c-0.4,0.4-0.4,1.1,0,1.6l2.4,2.4c0.2,0.2,0.5,0.3,0.8,0.3
				s0.6-0.1,0.8-0.3c0.4-0.4,0.4-1.1,0-1.6L585.5,333.3z"/>
		</g>
		<g>
			<path class="st0" d="M578.1,335.7c-0.6,0-1.1,0.5-1.1,1.1v3.4c0,0.6,0.5,1.1,1.1,1.1s1.1-0.5,1.1-1.1v-3.4
				C579.2,336.1,578.7,335.7,578.1,335.7z"/>
		</g>
		<g>
			<path class="st0" d="M590.8,326.4h-3.4c-0.6,0-1.1,0.5-1.1,1.1c0,0.6,0.5,1.1,1.1,1.1h3.4c0.6,0,1.1-0.5,1.1-1.1
				C591.9,326.9,591.4,326.4,590.8,326.4z"/>
		</g>
	</g>
</g>
</svg>
